<svg width="18" height="18" viewBox="0 0 18 18" fill="none" xmlns="http://www.w3.org/2000/svg">
<path d="M15.1252 11.2422C14.4826 10.6002 13.6713 10.6002 13.0207 11.2422C12.5307 11.7318 12.0315 12.2224 11.5496 12.7201C11.4225 12.8552 11.3046 12.8898 11.1439 12.7963C10.8227 12.6186 10.4851 12.4845 10.1812 12.2905C8.74362 11.3956 7.54397 10.2386 6.48766 8.93841C5.96307 8.29644 5.49032 7.60369 5.16906 6.82764C5.10095 6.66715 5.11823 6.56557 5.24531 6.43962C5.74449 5.96627 6.22537 5.47667 6.70726 4.98706C7.38334 4.30345 7.38334 3.50912 6.70726 2.8255C6.32703 2.43748 5.93867 2.05758 5.54929 1.66854C5.15178 1.27137 4.76342 0.87522 4.35777 0.478054C3.70712 -0.154772 2.89583 -0.163914 2.24517 0.478054C1.74701 0.967655 1.27325 1.4664 0.765936 1.94788C0.301325 2.39481 0.0644447 2.93622 0.013612 3.56905C-0.062637 4.59904 0.19051 5.57012 0.546339 6.52494C1.28138 8.49249 2.38851 10.2315 3.73253 11.8283C5.55031 13.9898 7.72188 15.7045 10.2655 16.9376C11.4062 17.4943 12.5988 17.926 13.8828 17.993C14.7622 18.0438 15.5389 17.8244 16.156 17.1316C16.579 16.6583 17.0517 16.2367 17.5001 15.7806C18.168 15.1133 18.168 14.3027 17.4919 13.6099C16.705 12.8126 15.9192 12.0274 15.1252 11.2422Z" fill="#FFB71B"/>
</svg>
