<svg width="44" height="44" viewBox="0 0 44 44" fill="none" xmlns="http://www.w3.org/2000/svg">
<g clip-path="url(#clip0)">
<path d="M3.7307 22.9043C3.77885 22.9043 3.82777 22.8988 3.8767 22.8874C4.21983 22.807 4.43287 22.4637 4.35255 22.1206C4.29257 21.8644 4.16784 21.3314 4.34311 21.1022C4.468 20.9388 4.79982 20.8397 5.27729 20.823C7.17331 20.7564 7.75475 19.8803 8.31696 19.033C8.61823 18.579 8.92971 18.1096 9.49694 17.67C10.0555 17.2372 10.2949 17.2291 10.3337 17.2313C10.3689 17.2687 10.6184 17.5885 10.5262 18.9948C10.4778 19.7324 10.6203 20.2744 10.9616 20.6516C11.4392 21.1794 12.1348 21.2031 12.6937 21.2222C12.9452 21.2308 13.1827 21.239 13.3549 21.287C13.8976 21.4381 14.3738 21.3904 14.7564 21.352C14.9921 21.3283 15.2359 21.3039 15.2876 21.3605C15.5425 21.6385 15.8336 21.7735 16.1529 21.7663C16.7551 21.7497 17.163 21.2524 17.7806 20.4995C17.8371 20.4307 17.8957 20.3593 17.9566 20.2854C17.9901 20.2449 18.0142 20.2235 18.0279 20.2129C18.116 20.2327 18.3117 20.3516 18.4442 20.4322C18.9159 20.7189 19.6289 21.1523 20.5169 20.7718C21.4942 20.3531 21.747 20.0426 22.2256 19.3803C22.3989 19.1406 22.6145 18.8422 22.9427 18.451C23.5207 17.7619 24.357 17.5615 24.7022 17.7211C24.7568 17.7464 24.923 17.8233 24.8444 18.2837C24.732 18.9417 24.8589 19.4369 25.2213 19.7555C25.8494 20.3074 26.8286 20.0067 27.5436 19.7871C27.7071 19.7369 27.8925 19.68 27.9735 19.6678C28.0354 19.6623 28.2215 19.7076 28.345 19.7381C28.9636 19.8909 30.2509 20.2083 30.8896 18.383C31.3207 17.1513 31.6363 17.1049 32.5733 16.9674C32.6728 16.9527 32.7758 16.9376 32.8826 16.9205C34.9607 16.588 35.3489 15.2274 35.6608 14.134C35.7493 13.8236 35.833 13.5304 35.9494 13.2619C36.1393 12.8235 36.4902 12.5985 36.9344 12.3136C37.505 11.9477 38.2151 11.4924 38.5143 10.475C38.6578 9.98712 39.0688 9.70746 39.2896 9.63548C39.2832 9.75995 39.2419 9.98184 39.1054 10.3167C38.6254 11.4948 38.5267 12.1453 38.7533 12.6368C38.9608 13.0869 39.3761 13.2245 39.6242 13.3067C39.72 13.3384 39.8104 13.3684 39.8541 13.3985C39.8541 13.3985 39.858 13.4019 39.8652 13.4098C40.0993 13.6731 40.5027 13.6966 40.7661 13.4623C41.0294 13.2281 41.0528 12.8247 40.8185 12.5615C40.7459 12.4799 40.6674 12.4096 40.5847 12.3523C40.386 12.2147 40.1861 12.1485 40.0257 12.0953C39.9909 12.0838 39.9489 12.0699 39.9141 12.0571C39.9161 11.9313 39.9638 11.5922 40.2872 10.7983C40.6601 9.88315 40.659 9.19068 40.2842 8.74018C40.0069 8.40675 39.569 8.27334 39.0831 8.37374C38.4052 8.51387 37.5716 9.15707 37.2899 10.1149C37.125 10.6752 36.7562 10.9119 36.2454 11.2394C35.7193 11.5768 35.123 11.9593 34.7783 12.7546C34.6287 13.0999 34.5295 13.4477 34.4335 13.784C34.1462 14.7911 33.9564 15.4564 32.681 15.6605C32.5798 15.6767 32.4821 15.691 32.3878 15.7048C31.3509 15.8571 30.3712 16.0009 29.685 17.9615C29.4296 18.6915 29.2489 18.6469 28.6507 18.4992C28.3741 18.4309 28.0881 18.3604 27.7857 18.4056C27.6089 18.4321 27.4049 18.4946 27.1689 18.5671C26.9286 18.6409 26.3168 18.8284 26.0845 18.792C26.0786 18.7447 26.0759 18.6532 26.1023 18.4984C26.2545 17.6073 25.9314 16.8837 25.2382 16.5628C24.278 16.1183 22.8399 16.5874 21.9649 17.6308C21.6072 18.0573 21.3766 18.3763 21.1914 18.6327C20.8008 19.173 20.7081 19.3014 20.0142 19.5987C19.756 19.7094 19.55 19.6108 19.1072 19.3416C18.6693 19.0754 17.7583 18.5215 16.9729 19.4725C16.9109 19.5474 16.8514 19.62 16.794 19.6899C16.5772 19.9542 16.3185 20.2697 16.1534 20.4217C15.6818 19.9764 15.1008 20.0348 14.6291 20.082C14.3101 20.114 14.009 20.1442 13.6974 20.0574C13.3785 19.9686 13.0525 19.9574 12.7373 19.9466C12.4024 19.9352 12.0229 19.9222 11.9079 19.7951C11.8644 19.747 11.7667 19.581 11.7997 19.0781C11.8681 18.035 11.8526 16.5915 10.9314 16.1019C10.045 15.631 9.04405 16.4063 8.71522 16.6611C7.98225 17.2292 7.57829 17.838 7.25362 18.3272C6.75012 19.086 6.47284 19.5039 5.23254 19.5474C4.34132 19.5787 3.70109 19.8409 3.32937 20.3268C2.78775 21.035 3.00539 21.9646 3.10995 22.4114C3.17878 22.7057 3.441 22.9043 3.7307 22.9043ZM42.5123 18.909C42.3327 18.6866 42.1566 18.4861 41.9863 18.2921C41.2134 17.4116 40.9824 17.0808 41.2062 16.5312C41.2572 16.4065 41.3021 16.2728 41.3398 16.1339C41.4321 15.7939 41.2313 15.4432 40.8913 15.3508C40.5514 15.2587 40.2006 15.4592 40.1083 15.7994C40.0841 15.8883 40.0559 15.9724 40.0246 16.0494C39.484 17.3759 40.2686 18.2697 41.0272 19.1339C41.189 19.3182 41.3563 19.5088 41.5194 19.7108C42.0808 20.4057 42.4541 21.5421 42.5034 22.0837C41.1834 21.7406 40.4465 21.1285 40.3114 20.2619L40.2761 20.0318C40.1206 19.0093 39.9597 17.952 39.0634 17.728C38.5003 17.5874 37.7739 17.7743 37.2967 18.1828C36.8774 18.542 36.6741 19.0432 36.7242 19.5941C36.7398 19.7658 36.7628 19.946 36.7872 20.1366C36.8726 20.8021 37.0015 21.8078 36.6303 22.0616C35.7122 22.6899 35.6136 23.6669 35.5092 24.7012C35.4867 24.925 35.4634 25.1564 35.4314 25.3959C35.3405 26.0787 35.5856 26.4411 35.8073 26.6248C36.3658 27.0877 37.1667 26.823 37.8101 26.6101C37.9533 26.5628 38.0884 26.5181 38.188 26.4931C38.4192 26.4354 38.7454 26.8435 39.2131 27.7787C39.3498 28.0523 39.5017 28.287 39.6357 28.4941C40.0783 29.1779 40.4278 29.7179 40.0349 31.5616C39.8636 32.3656 39.6147 32.6286 39.5349 32.6715C39.4742 32.632 39.3637 32.4503 39.4308 32.2324C39.7141 31.3118 39.7073 30.5975 39.4104 30.1094C39.217 29.7915 38.9164 29.5875 38.5408 29.5194C38.1617 29.4506 37.9229 29.503 37.6598 29.7129C37.5933 29.7659 37.4165 29.907 36.5253 30.0591C35.5249 30.23 35.3314 30.0712 34.8635 29.6877C34.651 29.5136 34.3864 29.2967 34.0195 29.0851C33.3978 28.7266 32.9469 28.8238 32.6779 28.9685C31.8902 29.3924 31.7792 30.5987 31.6632 32.5317C31.6469 32.8038 31.5885 32.9935 31.4988 33.066C31.2958 33.2302 30.6492 33.1317 30.1295 33.0527C29.5128 32.9587 28.8138 32.8523 28.1755 32.9982C27.3072 33.1967 26.6802 32.9708 26.1762 32.7893C25.8767 32.6814 25.6181 32.5883 25.3417 32.5883C24.675 32.5883 24.4907 33.2358 24.412 33.5123C24.3846 33.6086 24.3349 33.7835 24.2931 33.8393C24.2616 33.8442 24.1448 33.8517 23.8903 33.7622C22.5991 33.3085 21.8278 33.7924 21.3174 34.1124C21.0424 34.285 20.8782 34.3826 20.7029 34.3826C20.1282 34.3826 18.7521 34.2367 18.3867 32.8848C18.0204 31.5293 16.9644 31.4262 16.397 31.3707C16.3348 31.3647 16.2599 31.3574 16.1972 31.3488C15.9693 30.0206 14.5878 29.9562 12.8551 29.8756C11.7108 29.8223 11.1837 30.1306 11.0351 30.9396C11.0299 30.9675 11.0235 31.0027 11.0177 31.0271C10.9956 31.0383 10.9522 31.0566 10.8763 31.0755C10.0714 31.2766 9.24365 30.2593 9.14377 29.9506C8.97378 29.4252 8.38136 28.5983 6.32395 28.9658C5.17851 29.1703 5.10432 30.2898 5.0645 30.8912C5.05863 30.9797 5.05106 31.0942 5.04026 31.189C4.26483 31.2565 3.90639 32.0674 3.664 32.6477C3.49281 32.0617 3.14968 31.2753 2.10592 30.6983C1.83655 30.5494 1.51214 30.304 1.49657 29.9799C1.48823 29.8044 1.56829 29.654 1.62981 29.58C2.10013 29.5919 3.4912 29.5491 4.07076 28.6711C4.31392 28.3027 4.4948 27.6657 3.97539 26.7227C3.71589 26.2516 3.62843 25.7667 3.70798 25.2403C3.76065 24.8918 3.5208 24.5667 3.1724 24.514C2.82417 24.4617 2.49882 24.7012 2.44615 25.0496C2.32483 25.8524 2.46326 26.6225 2.8576 27.3384C3.01815 27.6299 3.07354 27.8652 3.00581 27.9679C2.82612 28.2401 1.98034 28.3404 1.59824 28.3024C0.999702 28.2427 0.484966 28.8249 0.304595 29.4032C0.194927 29.7549 -0.0438087 30.9684 1.48866 31.8154C2.24817 32.2351 2.38124 32.7624 2.50996 33.2724C2.61223 33.6774 2.76674 34.2896 3.42262 34.4209C4.2399 34.5843 4.5901 33.7434 4.82185 33.1869C4.91263 32.9692 5.07684 32.5752 5.19348 32.4644C5.53559 32.4853 5.76778 32.355 5.90357 32.2395C6.27511 31.9235 6.30846 31.4199 6.3379 30.9755C6.37925 30.3517 6.43379 30.2425 6.54831 30.222C7.47262 30.057 7.88611 30.209 7.92958 30.3435C8.21248 31.2177 9.6186 32.7052 11.1859 32.3135C12.1235 32.0792 12.2361 31.465 12.2903 31.1698C12.2906 31.1686 12.2907 31.1673 12.291 31.166C12.3712 31.152 12.5245 31.1377 12.7958 31.1503C13.604 31.1879 14.3038 31.2289 14.6818 31.3502C14.9279 31.4292 14.9337 31.4869 14.9476 31.6266C15.0369 32.5201 15.8718 32.6016 16.273 32.6407C16.8033 32.6924 17.0237 32.7329 17.1548 33.2176C17.7669 35.4826 20.0253 35.6586 20.7029 35.6586C21.2539 35.6586 21.6651 35.4006 21.9956 35.1934C22.4536 34.9061 22.7561 34.7163 23.4672 34.9661C24.0405 35.1674 24.5042 35.1696 24.8847 34.9726C25.3565 34.7283 25.5222 34.2634 25.6158 33.9442C25.6599 33.9597 25.7038 33.9755 25.7437 33.9899C26.3343 34.2026 27.2269 34.5239 28.4598 34.2423C28.8618 34.1505 29.4086 34.2337 29.9375 34.3142C30.7846 34.4431 31.6604 34.5764 32.3011 34.0584C32.6839 33.749 32.8979 33.261 32.937 32.6081C32.9819 31.8588 33.0632 30.5045 33.2679 30.1335C33.296 30.145 33.3336 30.1628 33.3816 30.1906C33.6582 30.3501 33.8596 30.5152 34.0545 30.6749C34.7261 31.2252 35.2754 31.5671 36.74 31.3172C37.6894 31.1551 38.0874 30.9711 38.334 30.8013C38.3732 30.9064 38.4047 31.2271 38.2109 31.8572C38.0269 32.4553 38.1808 33.1187 38.6032 33.5472C38.952 33.901 39.4289 34.0337 39.8798 33.9021C40.3473 33.7656 40.9701 33.2949 41.2828 31.8278C41.7857 29.4678 41.2373 28.6203 40.7068 27.8008C40.5796 27.6042 40.4594 27.4185 40.3542 27.2082C39.9268 26.3531 39.2109 24.9224 37.8782 25.2552C37.7326 25.2916 37.5754 25.3436 37.409 25.3986C37.23 25.4578 36.9007 25.5667 36.6921 25.5977C36.6932 25.5873 36.6945 25.5763 36.6961 25.5647C36.7307 25.3049 36.7551 25.0631 36.7787 24.8292C36.8756 23.8695 36.9402 23.3957 37.3506 23.1149C38.3662 22.4201 38.1851 21.0066 38.0528 19.9744C38.0298 19.7956 38.0083 19.6268 37.9947 19.4785C37.9821 19.3396 38.0215 19.2419 38.1265 19.152C38.3095 18.9953 38.592 18.9469 38.7207 18.9606C38.8481 19.1332 38.9473 19.7857 39.014 20.2237L39.05 20.4583C39.2108 21.4908 39.9437 22.8393 42.5217 23.3996C42.9671 23.4967 43.3675 23.3365 43.5926 22.9717C44.1843 22.0136 43.2293 19.7967 42.5123 18.909Z" fill="#2B2831"/>
</g>
<defs>
<clipPath id="clip0">
<rect width="43.5556" height="43.5556" fill="white" transform="translate(0.222168 0.222168)"/>
</clipPath>
</defs>
</svg>
