<svg width="44" height="44" viewBox="0 0 44 44" fill="none" xmlns="http://www.w3.org/2000/svg">
<g clip-path="url(#clip0)">
<path d="M29.2591 24.1777C26.857 24.1777 24.9036 26.1312 24.9036 28.5333C24.9036 30.9354 26.857 32.8888 29.2591 32.8888C31.6612 32.8888 33.6147 30.9354 33.6147 28.5333C33.6147 26.1312 31.6612 24.1777 29.2591 24.1777ZM29.2591 31.437C27.6577 31.437 26.3554 30.1346 26.3554 28.5333C26.3554 26.9319 27.6578 25.6296 29.2591 25.6296C30.8606 25.6296 32.1628 26.9319 32.1628 28.5333C32.1629 30.1347 30.8606 31.437 29.2591 31.437Z" fill="#2B2831"/>
<path d="M30.711 31.437V34.4366L29.6614 33.7368C29.4175 33.5734 29.1002 33.5734 28.8563 33.7368L27.8073 34.4366V31.437H26.3555V35.7926C26.3555 36.0605 26.5028 36.3066 26.7395 36.4328C26.9747 36.5591 27.2621 36.5446 27.4843 36.3965L29.2591 35.2132L31.034 36.3965C31.1553 36.477 31.2961 36.5185 31.4369 36.5185C31.5545 36.5185 31.6721 36.4901 31.7796 36.4328C32.0155 36.3065 32.1629 36.0604 32.1629 35.7926V31.437H30.711Z" fill="#2B2831"/>
<path d="M26.3555 7.48145H16.9185V8.93332H26.3555V7.48145Z" fill="#2B2831"/>
<path d="M33.6148 11.8369H10.3851V13.2888H33.6148V11.8369Z" fill="#2B2831"/>
<path d="M26.3555 16.1926H10.3851V17.6445H26.3555V16.1926Z" fill="#2B2831"/>
<path d="M33.6147 16.1926H29.2592V17.6445H33.6147V16.1926Z" fill="#2B2831"/>
<path d="M33.6148 20.5481H10.3851V22H33.6148V20.5481Z" fill="#2B2831"/>
<path d="M19.0962 24.9036H10.3851V26.3554H19.0962V24.9036Z" fill="#2B2831"/>
<path d="M14.0148 28.5332H10.3851V29.9851H14.0148V28.5332Z" fill="#2B2831"/>
<path d="M19.0962 28.5332H16.9185V29.9851H19.0962V28.5332Z" fill="#2B2831"/>
<path d="M40.1481 0.222168C38.1467 0.222168 36.5184 1.8504 36.5184 3.85183V5.30371C36.5184 5.70438 36.8429 6.0296 37.2443 6.0296H43.0518C43.4532 6.0296 43.7777 5.70438 43.7777 5.30371V3.85183C43.7778 1.8504 42.1495 0.222168 40.1481 0.222168ZM42.3259 4.57772H37.9703V3.85183C37.9703 2.65116 38.9474 1.67405 40.1481 1.67405C41.3488 1.67405 42.3259 2.65116 42.3259 3.85183V4.57772Z" fill="#2B2831"/>
<path d="M40.148 0.222168H9.65911C7.65777 0.222168 6.02954 1.8504 6.02954 3.85183V38.6963H7.48142V3.85183C7.48142 2.65116 8.45853 1.67405 9.6592 1.67405H37.2459C36.7893 2.28093 36.5185 3.03516 36.5185 3.85183V40.1482C36.5185 41.3488 35.5414 42.3259 34.3407 42.3259H6.75544V43.7777H34.3406C36.342 43.7777 37.9703 42.1495 37.9703 40.1481V3.85183C37.9703 2.65116 38.9474 1.67405 40.1481 1.67405C40.5495 1.67405 40.874 1.34883 40.874 0.948151C40.874 0.547474 40.5494 0.222168 40.148 0.222168Z" fill="#2B2831"/>
<path d="M34.3407 42.3258C33.14 42.3258 32.1629 41.3487 32.1629 40.148V38.6961C32.1629 38.2947 31.8385 37.9702 31.437 37.9702H0.948066C0.547388 37.9702 0.222168 38.2947 0.222168 38.6961V40.148C0.222168 42.1494 1.8504 43.7776 3.85183 43.7776H34.3407C34.7422 43.7776 35.0666 43.4532 35.0666 43.0518C35.0666 42.6503 34.7422 42.3258 34.3407 42.3258ZM3.85183 42.3258C2.65116 42.3258 1.67405 41.3487 1.67405 40.148V39.4221H30.7111V40.148C30.7111 40.9647 30.9818 41.7189 31.4384 42.3258H3.85183Z" fill="#2B2831"/>
</g>
<defs>
<clipPath id="clip0">
<rect width="43.5556" height="43.5556" fill="white" transform="translate(0.222168 0.222168)"/>
</clipPath>
</defs>
</svg>
