<svg width="64" height="64" viewBox="0 0 64 64" fill="none" xmlns="http://www.w3.org/2000/svg">
<rect x="1" y="1" width="62" height="62" rx="31" fill="white" stroke="#2B2831" stroke-width="2"/>
<path fill-rule="evenodd" clip-rule="evenodd" d="M25.7861 0.799927L0.785645 26.2999L2.21378 27.7001L27.2143 2.20008L25.7861 0.799927ZM39.3026 1.78368L1.30233 38.7835L2.69755 40.2164L40.6978 3.21663L39.3026 1.78368ZM5.29361 48.293L48.2936 5.29303L49.7078 6.70724L6.70782 49.7072L5.29361 48.293ZM55.7937 11.793L11.7937 55.793L13.2079 57.2072L57.2079 13.2072L55.7937 11.793ZM20.8023 60.2841L60.8023 21.2841L62.1985 22.7161L22.1985 61.7161L20.8023 60.2841ZM62.3056 34.2806L33.3056 62.2806L34.6948 63.7194L63.6948 35.7194L62.3056 34.2806Z" fill="#2B2831"/>
<rect x="13" y="13" width="38" height="38" rx="19" fill="#FFB71B" stroke="#2B2831" stroke-width="2"/>
<circle cx="32" cy="13.625" r="2.125" fill="white" stroke="#2B2831"/>
<circle cx="32" cy="50.375" r="2.125" fill="white" stroke="#2B2831"/>
<circle cx="50.375" cy="32" r="2.125" transform="rotate(90 50.375 32)" fill="white" stroke="#2B2831"/>
<circle cx="13.625" cy="32" r="2.125" transform="rotate(90 13.625 32)" fill="white" stroke="#2B2831"/>
<circle cx="44.993" cy="44.9931" r="2.125" transform="rotate(135 44.993 44.9931)" fill="white" stroke="#2B2831"/>
<circle cx="19.0067" cy="19.0069" r="2.125" transform="rotate(135 19.0067 19.0069)" fill="white" stroke="#2B2831"/>
<circle cx="19.0071" cy="44.9932" r="2.125" transform="rotate(-135 19.0071 44.9932)" fill="white" stroke="#2B2831"/>
<circle cx="44.9929" cy="19.0065" r="2.125" transform="rotate(-135 44.9929 19.0065)" fill="white" stroke="#2B2831"/>
<path d="M31.354 35.12V34.62H30.854H27.8979L29.2357 33.357C29.8973 32.7431 30.3833 32.1613 30.6468 31.6124C30.9041 31.0763 31.032 30.5028 31.032 29.898C31.032 29.2199 30.8532 28.6083 30.4799 28.0856C30.1216 27.5616 29.6191 27.1707 28.9958 26.9056C28.3784 26.6298 27.6729 26.5 26.892 26.5C25.9615 26.5 25.1156 26.6752 24.3659 27.0391C23.6206 27.3915 23.0217 27.8914 22.585 28.5411L22.3006 28.9643L22.7293 29.2404L24.3813 30.3044L24.7819 30.5624L25.0589 30.1746C25.2445 29.9147 25.4671 29.7306 25.7288 29.6103L25.7288 29.6104L25.7387 29.6056C26.0082 29.4745 26.3194 29.404 26.682 29.404C27.1369 29.404 27.3908 29.5008 27.5266 29.6124L27.5341 29.6185L27.5418 29.6243C27.6676 29.7198 27.75 29.8591 27.75 30.122C27.75 30.3029 27.704 30.501 27.5944 30.7212C27.4921 30.9174 27.2698 31.1972 26.8838 31.5653C26.8835 31.5656 26.8832 31.5659 26.883 31.5661L23.1047 35.1345L22.948 35.2825V35.498V36.968V37.468H23.448H30.854H31.354V36.968V35.12ZM33.2408 35.0082L33.2408 35.0083L33.244 35.0149C33.6437 35.8451 34.2024 36.4995 34.9252 36.9566C35.6464 37.4126 36.4639 37.636 37.3625 37.636C38.2611 37.636 39.0786 37.4126 39.7997 36.9566C40.5235 36.4989 41.0782 35.8433 41.4686 35.0115C41.8709 34.165 42.0625 33.1787 42.0625 32.068C42.0625 30.9585 41.8713 29.9765 41.4686 29.1384C41.0787 28.2985 40.5244 27.6377 39.7997 27.1794C39.0786 26.7234 38.2611 26.5 37.3625 26.5C36.4639 26.5 35.6464 26.7234 34.9252 27.1794C34.2008 27.6375 33.6421 28.2979 33.2429 29.1372L33.2418 29.1396C32.8489 29.9772 32.6625 30.9586 32.6625 32.068C32.6625 33.1776 32.849 34.1627 33.2408 35.0082ZM38.3476 34.1689L38.3476 34.1689L38.3441 34.1742C38.0975 34.551 37.7857 34.718 37.3625 34.718C36.952 34.718 36.637 34.5535 36.3791 34.1716C36.124 33.78 35.9585 33.1058 35.9585 32.068C35.9585 31.0302 36.124 30.356 36.3791 29.9644C36.637 29.5825 36.952 29.418 37.3625 29.418C37.7857 29.418 38.0975 29.585 38.3441 29.9618L38.3441 29.9619L38.3476 29.9671C38.6099 30.357 38.7805 31.0295 38.7805 32.068C38.7805 33.1065 38.6099 33.779 38.3476 34.1689Z" fill="white" stroke="#2B2831"/>
</svg>
