<svg width="22" height="24" viewBox="0 0 22 24" fill="none" xmlns="http://www.w3.org/2000/svg">
<path d="M20.2824 8.58468H19.7061V5.80404C19.7061 5.78671 19.7033 5.76924 19.7013 5.75151C19.7004 5.64121 19.665 5.53278 19.5894 5.44686L14.9619 0.160951C14.9604 0.159594 14.9591 0.159113 14.9582 0.157668C14.9306 0.126852 14.8985 0.101202 14.8644 0.0790529C14.8543 0.072312 14.8442 0.0666653 14.8336 0.0607123C14.8042 0.0447354 14.7729 0.0312972 14.7408 0.0216236C14.732 0.0193474 14.7242 0.0157581 14.7155 0.0134819C14.6806 0.00516514 14.6443 0 14.6075 0H3.23526C2.71599 0 2.29411 0.42236 2.29411 0.941194V8.58442H1.71789C0.975032 8.58442 0.372681 9.18655 0.372681 9.92968V16.925C0.372681 17.6674 0.975032 18.2702 1.71789 18.2702H2.29411V23.0588C2.29411 23.5777 2.71599 24 3.23526 24H18.7646C19.2835 24 19.7058 23.5777 19.7058 23.0588V18.2702H20.2821C21.0247 18.2702 21.6272 17.6678 21.6272 16.9251V9.92994C21.6272 9.1866 21.0252 8.58468 20.2824 8.58468ZM3.23526 0.941194H14.1369V5.75642C14.1369 6.01643 14.3478 6.22701 14.6075 6.22701H18.7647V8.58464H3.23526V0.941194ZM12.7697 13.7735C11.8451 13.4513 11.2417 12.9398 11.2417 12.1301C11.2417 11.1803 12.0344 10.4537 13.3479 10.4537C13.9752 10.4537 14.4379 10.5856 14.7679 10.7344L14.4873 11.75C14.2645 11.6429 13.8681 11.4857 13.323 11.4857C12.778 11.4857 12.5138 11.7335 12.5138 12.0226C12.5138 12.3778 12.8277 12.5346 13.5459 12.8071C14.5284 13.1706 14.991 13.6825 14.991 14.4669C14.991 15.4003 14.2725 16.1931 12.7447 16.1931C12.1089 16.1931 11.4814 16.0281 11.1675 15.8544L11.4233 14.814C11.762 14.9872 12.2824 15.161 12.819 15.161C13.3975 15.161 13.7026 14.9215 13.7026 14.558C13.7029 14.2114 13.4386 14.0129 12.7697 13.7735ZM10.6398 15.0533V16.1107H7.16256V10.544H8.42658V15.0533H10.6398ZM3.12496 16.1107H1.68808L3.29838 13.2938L1.74564 10.5438H3.19105L3.67802 11.5597C3.84322 11.8983 3.96718 12.1705 4.09946 12.4848H4.11552C4.24802 12.1296 4.35527 11.8819 4.49525 11.5597L4.96607 10.5438H6.40298L4.83383 13.2605L6.4858 16.1102H5.03247L4.52843 15.1025C4.32231 14.7149 4.19007 14.4256 4.0331 14.1035H4.01669C3.90091 14.4256 3.76084 14.7149 3.58724 15.1025L3.12496 16.1107ZM18.7647 22.804H3.23526V18.2702H18.7646V22.804H18.7647ZM18.7732 16.1107L18.2693 15.103C18.0629 14.715 17.9308 14.4261 17.7738 14.1039H17.7578C17.642 14.4261 17.5014 14.715 17.3276 15.103L16.8658 16.1107H15.4285L17.0388 13.2938L15.4861 10.5438H16.9315L17.4191 11.5597C17.5841 11.8983 17.7077 12.1705 17.8401 12.4848H17.8566C17.9885 12.1296 18.0955 11.8819 18.2361 11.5597L18.7068 10.5438H20.144L18.5749 13.2605L20.2265 16.1102H18.7732V16.1107Z" fill="#219653"/>
</svg>
