<svg width="44" height="44" viewBox="0 0 44 44" fill="none" xmlns="http://www.w3.org/2000/svg">
<g clip-path="url(#clip0)">
<path d="M36.9435 7.38507C35.5954 7.2146 34.2778 6.91553 33.028 6.49649C32.6937 6.38451 32.3322 6.56462 32.2202 6.89858C32.1082 7.23288 32.2883 7.59442 32.6223 7.70641C33.9518 8.15236 35.3518 8.47004 36.7837 8.65115C38.931 8.92297 40.4636 10.9048 40.1998 13.0688C39.8538 15.9067 39.2205 20.1425 38.1677 24.2059C37.021 28.6319 35.6751 31.7113 34.1675 33.3589C31.0714 36.7421 27.1898 39.7408 24.4788 41.6605C23.0543 42.6694 21.1402 42.6694 19.7159 41.6605C17.005 39.7408 13.1234 36.7421 10.0273 33.3589C8.51965 31.7113 7.17349 28.6319 6.02704 24.2059C4.9743 20.1425 4.34093 15.9067 3.99467 13.0688C3.73116 10.9048 5.26341 8.92297 7.41108 8.65115C13.6016 7.86824 17.7045 4.75788 20.0565 2.28654C20.5926 1.72362 21.3173 1.41325 22.0972 1.41325C22.8771 1.41325 23.6019 1.72362 24.1382 2.28654C25.8326 4.06702 27.7912 5.51886 29.9595 6.60183C30.2745 6.75935 30.658 6.63141 30.8155 6.31605C30.9727 6.0007 30.8448 5.61755 30.5297 5.46037C28.4941 4.44352 26.6548 3.07975 25.0624 1.40694C24.2831 0.588142 23.23 0.137207 22.0972 0.137207C20.9644 0.137207 19.9113 0.588142 19.1321 1.40694C16.9229 3.72808 13.0685 6.64935 7.25091 7.38507C4.40839 7.74462 2.37935 10.3638 2.72793 13.2233C3.32209 18.0969 5.13115 29.8989 9.08589 34.2206C12.2581 37.6868 16.2165 40.746 18.9782 42.7019C19.911 43.3625 21.0039 43.6929 22.0972 43.6929C23.1902 43.6925 24.2834 43.3625 25.2162 42.7019C27.978 40.746 31.9364 37.6868 35.1086 34.2206C39.0636 29.8989 40.8724 18.0969 41.4665 13.2233C41.8151 10.3638 39.7861 7.74462 36.9435 7.38507Z" fill="#2B2831"/>
<path d="M20.6577 6.1305C17.43 8.92351 13.6621 10.7515 9.45875 11.5637C8.17806 11.8112 7.3134 13.0221 7.49019 14.3208C7.7876 16.5043 8.39572 20.588 9.12512 23.4033C10.4547 28.536 11.7403 30.4903 12.3883 31.1981C14.5184 33.5256 18.4708 36.6356 20.6371 38.2822C21.0671 38.6088 21.5822 38.772 22.0972 38.772C22.6123 38.772 23.1274 38.6088 23.5574 38.2822C25.7237 36.6356 29.6761 33.5256 31.8061 31.1981C32.4541 30.4903 33.7398 28.536 35.0694 23.4033C35.7991 20.5874 36.4069 16.504 36.7046 14.3208C36.8814 13.0221 36.0164 11.8112 34.7357 11.5637C30.5324 10.7515 26.7644 8.92351 23.5368 6.1305C22.716 5.42037 21.4785 5.42037 20.6577 6.1305ZM35.4402 14.1483C35.1465 16.304 34.5473 20.3308 33.8342 23.0833C32.49 28.2719 31.2216 29.9467 30.8651 30.3368C28.7254 32.6746 24.5018 35.9614 22.7851 37.266C22.38 37.574 21.8145 37.574 21.4094 37.266C19.6927 35.9614 15.4691 32.6742 13.3298 30.3368C12.9729 29.9467 11.7045 28.2719 10.3603 23.0833C9.6475 20.3315 9.04836 16.3043 8.7546 14.1483C8.66887 13.5206 9.08458 12.9357 9.70067 12.8164C14.1266 11.9614 18.094 10.0367 21.4928 7.09551C21.6649 6.9463 21.8812 6.87154 22.0972 6.87154C22.3132 6.87154 22.5296 6.9463 22.7017 7.09551C26.1005 10.0367 30.0679 11.9614 34.4938 12.8164C35.1099 12.9357 35.5256 13.5206 35.4402 14.1483Z" fill="#2B2831"/>
<path d="M18.559 20.049C18.0792 19.6582 16.4595 18.8514 15.2998 20.3837C14.1404 21.9156 15.1546 23.2521 15.6344 23.6429L17.4847 25.1482C17.7578 25.3705 18.1599 25.3297 18.3822 25.0562C18.6045 24.7827 18.5633 24.3809 18.2902 24.1583L16.4399 22.653C16.2246 22.4775 15.754 21.9063 16.2897 21.1888C16.8254 20.4717 17.5382 20.8632 17.7535 21.0386L21.5846 24.156C21.8375 24.3617 22.2047 24.3437 22.4363 24.1141L28.0426 18.5603C28.4503 18.1562 29.1103 18.1596 29.5144 18.5673C29.9181 18.9747 29.9148 19.635 29.5074 20.0387L22.8298 26.6542C22.3011 27.164 21.7189 26.9516 21.4407 26.722L20.3807 25.8597C20.1072 25.6374 19.7054 25.6786 19.4828 25.9517C19.2605 26.2249 19.3017 26.627 19.5752 26.8493L20.6352 27.7119C21.047 28.0469 21.566 28.2317 22.097 28.2317C22.7121 28.2317 23.2913 27.9934 23.728 27.5607L30.4053 20.9456C31.3128 20.0464 31.3198 18.5766 30.4206 17.6691C29.5217 16.7619 28.0519 16.7549 27.1444 17.6538L21.9452 22.8045L18.559 20.049Z" fill="#2B2831"/>
</g>
<defs>
<clipPath id="clip0">
<rect width="43.5556" height="43.5556" fill="white" transform="translate(0.222168 0.222168)"/>
</clipPath>
</defs>
</svg>
