<svg width="64" height="64" viewBox="0 0 64 64" fill="none" xmlns="http://www.w3.org/2000/svg">
<rect x="1" y="1" width="62" height="62" rx="7" stroke="#2B2831" stroke-width="2"/>
<rect x="13.8" y="13.8" width="36.4" height="36.4" rx="3" fill="#FFB71B" stroke="#2B2831" stroke-width="2"/>
<circle cx="7.99998" cy="7.99998" r="1.9" fill="#FFB71B" stroke="#2B2831"/>
<circle cx="20" cy="7.99998" r="1.9" fill="#FFB71B" stroke="#2B2831"/>
<circle cx="32" cy="7.99998" r="1.9" fill="#FFB71B" stroke="#2B2831"/>
<circle cx="44.0001" cy="7.99998" r="1.9" fill="#FFB71B" stroke="#2B2831"/>
<circle cx="56.0001" cy="7.99998" r="1.9" fill="#FFB71B" stroke="#2B2831"/>
<circle cx="7.99998" cy="56" r="1.9" fill="#FFB71B" stroke="#2B2831"/>
<circle cx="7.99998" cy="44" r="1.9" fill="#FFB71B" stroke="#2B2831"/>
<circle cx="7.99998" cy="32" r="1.9" fill="#FFB71B" stroke="#2B2831"/>
<circle cx="7.99998" cy="20" r="1.9" fill="#FFB71B" stroke="#2B2831"/>
<circle cx="56.0001" cy="44" r="1.9" fill="#FFB71B" stroke="#2B2831"/>
<circle cx="56.0001" cy="32" r="1.9" fill="#FFB71B" stroke="#2B2831"/>
<circle cx="56.0001" cy="20" r="1.9" fill="#FFB71B" stroke="#2B2831"/>
<circle cx="20" cy="56" r="1.9" fill="#FFB71B" stroke="#2B2831"/>
<circle cx="32" cy="56" r="1.9" fill="#FFB71B" stroke="#2B2831"/>
<circle cx="44.0001" cy="56" r="1.9" fill="#FFB71B" stroke="#2B2831"/>
<circle cx="56.0001" cy="56" r="1.9" fill="#FFB71B" stroke="#2B2831"/>
<path d="M43.3806 21.027C42.1619 19.8082 41.753 19.2 40.6763 19.2C40.1107 19.2 39.5788 19.4202 39.1787 19.8202L25.0209 33.9777L25.021 25.0247C25.0209 24.2472 24.7182 23.5162 24.1686 22.9666C22.3223 21.1205 19.2002 22.4623 19.2002 25.0245L19.2 41.0895C19.2 42.6971 20.5007 43.9997 22.1103 43.9997L32.4444 43.9998C32.8942 43.9998 33.2589 43.6352 33.2589 43.1853C33.2589 42.7355 32.8942 42.3708 32.4444 42.3708L22.1102 42.3707C21.4024 42.3707 20.8292 41.7979 20.8292 41.0896L20.8294 25.0246C20.8294 23.8787 22.2168 23.3188 23.0167 24.1186C23.2586 24.3607 23.392 24.6825 23.392 25.0248L23.3919 35.9443C23.3919 36.6667 24.2697 37.033 24.7824 36.5203L40.3308 20.9722C40.5217 20.7813 40.8309 20.7811 41.022 20.9722L42.2288 22.1788C42.4194 22.3694 42.4194 22.6795 42.2289 22.87L26.6806 38.4178C26.1698 38.9287 26.5312 39.8084 27.2565 39.8084H38.176C38.8823 39.8084 39.4571 40.3832 39.4571 41.0899C39.4572 41.798 38.8843 42.371 38.1758 42.371L32.1215 42.3708C31.6717 42.3708 31.307 42.7355 31.307 43.1853C31.307 43.6352 31.6717 43.9998 32.1215 43.9998L38.176 44C39.7848 43.9997 41.0866 42.6983 41.0863 41.0896C41.0863 39.4849 39.7808 38.1792 38.176 38.1792H29.2229L43.3806 24.022C44.2064 23.1963 44.2064 21.8528 43.3806 21.027Z" fill="#2B2831"/>
</svg>
