<svg width="65" height="64" viewBox="0 0 65 64" fill="none" xmlns="http://www.w3.org/2000/svg">
<path d="M26.7215 3.67991C29.6375 0.76392 34.3653 0.763926 37.2812 3.67991L60.3224 26.721C63.2384 29.637 63.2384 34.3648 60.3224 37.2808L37.2812 60.3219C34.3653 63.2379 29.6375 63.2379 26.7215 60.3219L3.6804 37.2808C0.764408 34.3648 0.764415 29.637 3.6804 26.721L26.7215 3.67991Z" fill="white"/>
<path d="M61.4385 25.8121L38.1855 2.55914C34.7733 -0.853047 29.2219 -0.853047 25.8093 2.55914L10.4949 17.8739C10.0066 18.3617 10.0066 19.1533 10.4949 19.6416C10.9832 20.1299 11.7748 20.1299 12.263 19.6416L27.5774 4.32725C30.0149 1.88969 33.9803 1.89018 36.4174 4.32725L59.6704 27.5802C60.8511 28.7609 61.501 30.3303 61.501 32.0002C61.501 33.6697 60.8511 35.2396 59.6704 36.4203L36.4174 59.6728C33.9803 62.1103 30.0144 62.1103 27.5774 59.6728L4.32439 36.4203C1.89513 33.9905 1.88879 30.0314 4.3112 27.5944C4.79803 27.1046 4.79559 26.3131 4.30583 25.8263C3.81608 25.3399 3.02455 25.3419 2.53773 25.8316C-0.853463 29.2438 -0.844674 34.7864 2.55677 38.1879L25.8097 61.4409C27.5153 63.147 29.7566 64 31.9974 64C34.2386 64 36.4794 63.147 38.1855 61.4409L61.4385 38.1879C63.0914 36.535 64.0015 34.3372 64.0015 31.9998C64.0015 29.6623 63.0914 27.465 61.4385 25.8121Z" fill="#2B2831"/>
<path d="M6.71929 23.7628C7.15094 24.0504 7.72762 24.0387 8.14755 23.735C8.56211 23.4352 8.75206 22.8937 8.62022 22.4005C8.48203 21.8834 8.01376 21.505 7.48005 21.4761C6.94879 21.4473 6.44731 21.7706 6.25151 22.2643C6.03861 22.8019 6.23246 23.444 6.71929 23.7628Z" fill="#2B2831"/>
<rect x="32.0914" y="8.61441" width="33.2009" height="33.2009" rx="5" transform="rotate(45 32.0914 8.61441)" fill="#FFB71B" stroke="#2B2831" stroke-width="2"/>
</svg>
