<svg width="64" height="50" viewBox="0 0 64 50" fill="none" xmlns="http://www.w3.org/2000/svg">
<rect x="1" y="1" width="62" height="48" rx="3" fill="white" stroke="#2B2831" stroke-width="2"/>
<rect x="7" y="7" width="50" height="36" rx="1" fill="#FFB71B" stroke="#2B2831" stroke-width="2"/>
<g clip-path="url(#clip0)">
<path d="M36.9999 36.9979C36.9999 37.5804 36.5278 38.0525 35.9452 38.0525H11.0548C10.4723 38.0525 10.0001 37.5804 10.0001 36.9979C10.0001 36.4153 10.4723 35.9432 11.0548 35.9432H22.4597L22.4471 31.428L19.5599 29.9844L17.0122 32.5319C16.6752 32.8689 16.1478 32.9416 15.7292 32.6938L10.5176 29.6087C10.0162 29.3118 9.85038 28.665 10.1472 28.1638C10.4438 27.6626 11.0909 27.4968 11.5921 27.7934L16.0994 30.4619L18.5141 28.047L21.1353 23.6822L19.2169 21.7669L16.8239 23.3569C16.339 23.6793 15.6843 23.5473 15.3619 23.0622C15.0396 22.5771 15.1714 21.9224 15.6565 21.6L18.7678 19.5327C19.1858 19.255 19.7416 19.3102 20.0967 19.6647L25.7111 25.2698L28.1 23.6754C28.5845 23.352 29.2393 23.4828 29.5627 23.9673C29.8862 24.4518 29.7556 25.1067 29.2711 25.4301L26.1632 27.5042C25.7436 27.7842 25.187 27.7273 24.8325 27.3734L22.6735 25.2181L20.8424 28.2674L23.9717 29.832C24.328 30.0101 24.5536 30.3741 24.5546 30.7725L24.569 35.9434H30.7423V13.1621H16.2578V18.3336C16.2578 18.9161 15.7857 19.3883 15.2031 19.3883C14.6208 19.3883 14.1484 18.9161 14.1484 18.3336V12.1074C14.1484 11.5249 14.6208 11.0527 15.2031 11.0527H31.7969C32.3793 11.0527 32.8516 11.5249 32.8516 12.1074V35.9432H35.9452C36.5278 35.9432 36.9999 36.4153 36.9999 36.9979ZM25.5776 21.4657C23.8505 21.4657 22.4454 20.0606 22.4454 18.3334C22.4454 16.6063 23.8505 15.2012 25.5776 15.2012C27.3048 15.2012 28.7099 16.6063 28.7099 18.3334C28.7099 20.0606 27.3048 21.4657 25.5776 21.4657ZM25.5776 19.3563C26.1418 19.3563 26.6005 18.8976 26.6005 18.3334C26.6005 17.7694 26.1418 17.3106 25.5776 17.3106C25.0136 17.3106 24.5548 17.7694 24.5548 18.3334C24.5548 18.8976 25.0136 19.3563 25.5776 19.3563Z" fill="#2B2831"/>
</g>
<path d="M52.7071 25.7071C53.0976 25.3166 53.0976 24.6834 52.7071 24.2929L46.3431 17.9289C45.9526 17.5384 45.3195 17.5384 44.9289 17.9289C44.5384 18.3195 44.5384 18.9526 44.9289 19.3431L50.5858 25L44.9289 30.6569C44.5384 31.0474 44.5384 31.6805 44.9289 32.0711C45.3195 32.4616 45.9526 32.4616 46.3431 32.0711L52.7071 25.7071ZM38 26H52V24H38V26Z" fill="#2B2831"/>
<defs>
<clipPath id="clip0">
<rect width="27" height="27" fill="white" transform="translate(10 11)"/>
</clipPath>
</defs>
</svg>
