<svg width="44" height="40" viewBox="0 0 44 40" fill="none" xmlns="http://www.w3.org/2000/svg">
<path d="M16.8959 17.5696C17.3654 17.5696 17.7466 17.1884 17.7466 16.7189C17.7466 16.2493 17.3654 15.8682 16.8959 15.8682C16.4263 15.8682 16.0452 16.2493 16.0452 16.7189C16.0452 17.1884 16.4263 17.5696 16.8959 17.5696Z" fill="#2B2831"/>
<path d="M21.9999 14.1667C21.3407 14.1667 20.677 14.2259 20.0281 14.3425C19.5655 14.4259 19.2581 14.8679 19.3412 15.3305C19.4246 15.793 19.8666 16.1007 20.3291 16.017C20.8791 15.9183 21.4413 15.8681 21.9999 15.8681C27.1596 15.8681 31.3576 20.0661 31.3576 25.2258C31.3576 30.3854 27.1596 34.5834 21.9999 34.5834C16.8403 34.5834 12.6423 30.3854 12.6423 25.2258C12.6423 23.2306 13.264 21.3262 14.4401 19.7179C14.7172 19.3384 14.6348 18.806 14.2553 18.5289C13.8761 18.2514 13.3438 18.3342 13.0667 18.7133C11.676 20.6154 10.9409 22.8671 10.9409 25.2258C10.9409 31.3239 15.9019 36.2848 21.9999 36.2848C28.098 36.2848 33.059 31.3239 33.059 25.2258C33.059 19.1277 28.098 14.1667 21.9999 14.1667Z" fill="#2B2831"/>
<path d="M42.5263 25.9552L40.3749 23.0987V16.7189C40.3749 11.5592 36.177 7.36122 31.0173 7.36122H24.8813L25.4489 5.6585C26.8349 5.63391 27.9548 4.49943 27.9548 3.10775C27.9548 1.70045 26.81 0.555664 25.4027 0.555664C23.9954 0.555664 22.8506 1.70045 22.8506 3.10775C22.8506 3.92421 23.2364 4.65196 23.8353 5.11951L23.0882 7.36122H20.9117L20.1646 5.11951C20.7634 4.65196 21.1493 3.92421 21.1493 3.10775C21.1493 1.70045 20.0045 0.555664 18.5972 0.555664C17.1899 0.555664 16.0451 1.70045 16.0451 3.10775C16.0451 4.49943 17.1649 5.63391 18.551 5.6585L19.1186 7.36122H12.9826C7.82292 7.36122 3.62495 11.5592 3.62495 16.7189V23.1293L1.47628 25.9515C1.47428 25.9545 1.47196 25.9575 1.46963 25.9605C0.641866 27.0781 0.222168 28.2621 0.222168 29.4793C0.222168 32.3218 2.61641 34.948 6.96326 36.874C11.0589 38.6884 16.399 39.6876 21.9999 39.6876C27.6009 39.6876 32.941 38.6884 37.0366 36.874C41.3835 34.948 43.7777 32.3218 43.7777 29.4793C43.7777 28.2621 43.358 27.0781 42.5263 25.9552ZM25.4027 2.25705C25.8719 2.25705 26.2534 2.63854 26.2534 3.10775C26.2534 3.57696 25.8719 3.95844 25.4027 3.95844C24.9335 3.95844 24.552 3.57696 24.552 3.10775C24.552 2.63854 24.9335 2.25705 25.4027 2.25705ZM17.7465 3.10775C17.7465 2.63854 18.128 2.25705 18.5972 2.25705C19.0664 2.25705 19.4479 2.63854 19.4479 3.10775C19.4479 3.57696 19.0664 3.95844 18.5972 3.95844C18.128 3.95844 17.7465 3.57696 17.7465 3.10775ZM12.9826 9.06261H20.2922C20.2942 9.06261 20.2962 9.06294 20.2982 9.06294C20.3006 9.06294 20.3025 9.06261 20.3045 9.06261H23.6954C23.6973 9.06261 23.6993 9.06294 23.7017 9.06294C23.7037 9.06294 23.7057 9.06261 23.7076 9.06261H31.0173C35.2389 9.06261 38.6736 12.4973 38.6736 16.7189V20.6281C38.4147 20.1715 38.1781 19.7023 37.9687 19.2218C37.5005 18.1488 37.1583 17.0196 36.9512 15.8655C36.4219 12.9097 33.8578 10.764 30.8538 10.764H12.734C12.1777 10.764 11.6255 10.8414 11.0921 10.9946C10.0606 11.291 9.13419 11.9088 8.41276 12.7807C7.73752 13.5975 7.27197 14.5964 7.0666 15.6698C6.74028 17.3718 6.14745 19.0234 5.32633 20.5483V16.7189C5.32633 12.4973 8.76101 9.06261 12.9826 9.06261ZM36.3474 35.3185C32.5203 37.0139 27.2909 37.9862 21.9999 37.9862C16.709 37.9862 11.4796 37.0139 7.65245 35.3185C4.01175 33.7052 1.92356 31.5771 1.92356 29.4793C1.92356 28.6362 2.22961 27.7945 2.83373 26.9777L5.20837 23.8574L5.24691 23.8075C6.98851 21.52 8.19577 18.8167 8.73775 15.9898C8.88962 15.1966 9.23056 14.4619 9.72403 13.865C10.2261 13.2583 10.8615 12.8313 11.562 12.6299C11.9421 12.5205 12.3366 12.4654 12.7344 12.4654H30.8541C33.0327 12.4654 34.8926 14.0212 35.2764 16.1652C35.507 17.4506 35.8882 18.7077 36.4092 19.9017C36.93 21.0959 37.5916 22.2304 38.3771 23.2742L41.1632 26.973C41.769 27.7915 42.0763 28.6346 42.0763 29.4793C42.0763 31.5771 39.9881 33.7052 36.3474 35.3185Z" fill="#2B2831"/>
</svg>
