<svg width="44" height="44" viewBox="0 0 44 44" fill="none" xmlns="http://www.w3.org/2000/svg">
<g clip-path="url(#clip0)">
<path d="M10.3851 28.8962C7.98299 28.8962 6.02954 30.8497 6.02954 33.2518C6.02954 35.6539 7.98299 37.6074 10.3851 37.6074C12.7872 37.6074 14.7407 35.6539 14.7407 33.2518C14.7407 30.8497 12.7871 28.8962 10.3851 28.8962ZM10.3851 36.1555C8.78366 36.1555 7.48142 34.8531 7.48142 33.2518C7.48142 31.6504 8.78375 30.3481 10.3851 30.3481C11.9864 30.3481 13.2888 31.6504 13.2888 33.2518C13.2888 34.8531 11.9864 36.1555 10.3851 36.1555Z" fill="#2B2831"/>
<path d="M35.0666 28.8962C32.6645 28.8962 30.7111 30.8497 30.7111 33.2518C30.7111 35.6539 32.6645 37.6074 35.0666 37.6074C37.4687 37.6074 39.4222 35.6539 39.4222 33.2518C39.4222 30.8497 37.4687 28.8962 35.0666 28.8962ZM35.0666 36.1555C33.4652 36.1555 32.1629 34.8531 32.1629 33.2518C32.1629 31.6504 33.4653 30.3481 35.0666 30.3481C36.668 30.3481 37.9703 31.6504 37.9703 33.2518C37.9703 34.8531 36.668 36.1555 35.0666 36.1555Z" fill="#2B2831"/>
<path d="M43.6623 24.8739L37.1289 14.7109C36.9954 14.5032 36.7653 14.3777 36.5184 14.3777H28.5333C28.1318 14.3777 27.8074 14.7029 27.8074 15.1036V33.2517C27.8074 33.6531 28.1318 33.9776 28.5333 33.9776H31.4369V32.5257H29.2592V15.8296H36.1221L42.3258 25.48V32.5259H38.6962V33.9777H43.0517C43.4532 33.9777 43.7776 33.6532 43.7776 33.2518V25.2666C43.7777 25.1279 43.7378 24.9907 43.6623 24.8739Z" fill="#2B2831"/>
<path d="M32.163 23.8148V18.7334H37.9704V17.2815H31.4371C31.0356 17.2815 30.7112 17.6067 30.7112 18.0074V24.5407C30.7112 24.9422 31.0356 25.2666 31.4371 25.2666H42.326V23.8147H32.163V23.8148Z" fill="#2B2831"/>
<path d="M28.5333 9.29639H0.948066C0.547388 9.29639 0.222168 9.62161 0.222168 10.0223V33.2519C0.222168 33.6534 0.547388 33.9778 0.948066 33.9778H6.7555V32.526H1.67405V10.7482H27.8074V32.526H14.0147V33.9778H28.5333C28.9347 33.9778 29.2592 33.6534 29.2592 33.2519V10.0223C29.2592 9.62161 28.9347 9.29639 28.5333 9.29639Z" fill="#2B2831"/>
<path d="M5.30368 29.6221H0.94812V31.0739H5.30368V29.6221Z" fill="#2B2831"/>
<path d="M27.8073 29.6221H15.4666V31.0739H27.8073V29.6221Z" fill="#2B2831"/>
<path d="M43.0517 29.6221H40.1481V31.0739H43.0517V29.6221Z" fill="#2B2831"/>
<path d="M28.5333 12.2H3.12585V13.6518H28.5333V12.2Z" fill="#2B2831"/>
<path d="M11.1111 32.5259H9.65918V33.9778H11.1111V32.5259Z" fill="#2B2831"/>
<path d="M35.7926 32.5259H34.3407V33.9778H35.7926V32.5259Z" fill="#2B2831"/>
<path d="M13.2888 6.39258H3.12585V7.84446H13.2888V6.39258Z" fill="#2B2831"/>
<path d="M1.67405 6.39258H0.222168V7.84446H1.67405V6.39258Z" fill="#2B2831"/>
</g>
<defs>
<clipPath id="clip0">
<rect width="43.5556" height="43.5556" fill="white" transform="translate(0.222168 0.222168)"/>
</clipPath>
</defs>
</svg>
