<svg width="44" height="44" viewBox="0 0 44 44" fill="none" xmlns="http://www.w3.org/2000/svg">
<g clip-path="url(#clip0)">
<path d="M29.8279 13.4207C29.3575 13.4207 28.9756 13.8008 28.9756 14.271C28.9756 14.7409 29.3575 15.1217 29.8279 15.1217C30.2994 15.1217 30.6803 14.7409 30.6803 14.271C30.6803 13.8008 30.2994 13.4207 29.8279 13.4207Z" fill="#2B2831"/>
<path d="M14.341 28.877C13.8695 28.877 13.4886 29.2581 13.4886 29.7276C13.4886 30.1982 13.8695 30.5783 14.341 30.5783C14.8115 30.5783 15.1934 30.1982 15.1934 29.7276C15.1934 29.2581 14.8115 28.877 14.341 28.877Z" fill="#2B2831"/>
<path d="M42.8447 5.45568C42.5571 5.38889 42.2547 5.47562 42.047 5.68497L38.5134 9.23962H36.8193L34.9544 7.31126V5.59691L38.4374 2.06885C38.6435 1.86017 38.7274 1.5601 38.6592 1.27465C38.5913 0.989536 38.3808 0.759582 38.1025 0.665873C37.2275 0.371453 36.3119 0.222249 35.3806 0.222249C32.6044 0.222249 30.0823 1.51424 28.4608 3.76692C26.9432 5.87572 26.4755 8.46003 27.1457 10.9334L20.8672 17.1996L10.4071 6.73605V4.68242C10.4071 4.38368 10.25 4.10654 9.99329 3.95301L3.96651 0.343539C3.63089 0.142496 3.20171 0.195332 2.92536 0.471476L0.514785 2.87702C0.238434 3.15316 0.185494 3.5815 0.386598 3.91646L4.00247 9.93147C4.15629 10.1877 4.43364 10.3442 4.73296 10.3445L6.78995 10.3452L17.251 20.8087L10.9965 27.051C8.5183 26.3824 5.9276 26.85 3.81368 28.3656C1.55793 29.9829 0.264404 32.4995 0.264404 35.2702C0.264404 36.1993 0.4139 37.1135 0.708896 37.9865C0.803122 38.2659 1.03586 38.4769 1.32353 38.5434C1.61153 38.6102 1.91352 38.5235 2.12162 38.3141L5.65491 34.7598H7.3583L9.29908 36.6968V38.3969L5.73782 41.9233C5.52806 42.1309 5.44115 42.4323 5.50808 42.7198C5.57467 43.0069 5.78609 43.2392 6.06611 43.3332C6.94077 43.6276 7.85673 43.7768 8.78766 43.7768C11.5638 43.7768 14.0849 42.4855 15.7058 40.2342C17.2244 38.1244 17.6928 35.5391 17.0229 33.0657L22.0462 28.0523L23.1969 29.2997L22.6688 29.8264C22.3358 30.1587 22.3358 30.6974 22.6688 31.0297C23.0018 31.3617 23.5411 31.3617 23.8744 31.0297L24.3525 30.5525L35.1489 42.2569C35.1569 42.2655 35.1652 42.2738 35.1735 42.2821C37.1712 44.276 40.4079 44.2766 42.4066 42.2818C44.3996 40.2916 44.3996 37.0534 42.4066 35.0632C42.3979 35.0546 42.3889 35.0462 42.3799 35.0379L30.6344 24.2833L31.1072 23.8114C31.4401 23.4795 31.4401 22.9408 31.1072 22.6085C30.7742 22.2762 30.2348 22.2762 29.9015 22.6085L29.3771 23.1322L28.1249 21.9851L33.1725 16.9474C33.89 17.1388 34.6305 17.2358 35.3806 17.2358C40.0806 17.2358 43.9039 13.4197 43.9039 8.7292C43.9039 7.79975 43.7544 6.88592 43.4594 6.01262C43.3651 5.73316 43.1324 5.52215 42.8447 5.45568ZM7.74685 8.89369C7.58704 8.73385 7.37028 8.65244 7.14388 8.65244L5.21608 8.65177L2.19087 3.61074L3.66019 2.14429L8.70243 5.16426V7.08829C8.70243 7.31359 8.79199 7.52959 8.95148 7.68909L19.6619 18.4029L18.4563 19.6058L7.74685 8.89369ZM29.4277 25.4876L41.2133 36.2784C42.5298 37.6063 42.5258 39.7563 41.201 41.0792C39.8731 42.4044 37.7236 42.4084 36.3905 41.0908L25.5588 29.3483L29.4277 25.4876ZM28.1705 24.3361L24.4032 28.0955L23.2525 26.848L26.9183 23.189L28.1705 24.3361ZM35.3806 15.5344C34.6351 15.5344 33.902 15.4151 33.2021 15.1799C32.8954 15.0772 32.5565 15.1563 32.3274 15.3846C28.0543 19.6493 18.8468 28.8385 15.4564 32.2227C15.2273 32.4513 15.1477 32.7896 15.2513 33.096C15.9598 35.1958 15.6209 37.4355 14.321 39.2416C13.0248 41.0423 11.0078 42.0754 8.78766 42.0754C8.53828 42.0754 8.29023 42.0618 8.04451 42.0356L10.7518 39.3545C10.9129 39.195 11.0038 38.9777 11.0038 38.7508V36.3442C11.0038 36.1186 10.9139 35.9023 10.7541 35.7428L8.31387 33.3073C8.15405 33.1478 7.9373 33.0581 7.71123 33.0581H5.29998C5.07258 33.0581 4.85483 33.1488 4.69467 33.3096L2.00874 36.0116C1.98211 35.7663 1.96879 35.5188 1.96879 35.2699C1.96879 33.0538 3.00361 31.041 4.80821 29.7473C6.61748 28.45 8.86191 28.1114 10.9662 28.8189C11.2728 28.9222 11.6118 28.8428 11.8408 28.6142C11.8878 28.5677 28.6999 11.788 28.7119 11.7761C28.941 11.5475 29.0202 11.2095 28.917 10.9031C28.2081 8.8033 28.5464 6.56425 29.8453 4.75951C31.1425 2.9571 33.1598 1.92364 35.3803 1.92364C35.6373 1.92364 35.8927 1.93793 36.1457 1.96584L33.4948 4.65118C33.3376 4.81035 33.2497 5.02469 33.2497 5.248V7.65453C33.2497 7.87518 33.3353 8.08686 33.4888 8.24537L35.8437 10.6808C36.0042 10.847 36.2256 10.9407 36.457 10.9407H38.8683C39.0954 10.9407 39.3131 10.8503 39.4733 10.6891L42.1592 7.9875C42.1858 8.23274 42.1991 8.4803 42.1991 8.7292C42.1991 12.4816 39.1403 15.5344 35.3806 15.5344Z" fill="#2B2831"/>
<path d="M26.8148 16.0754L16.1486 26.7207C15.816 27.0527 15.816 27.5914 16.1486 27.9237C16.4816 28.256 17.0213 28.256 17.3543 27.9237L28.0204 17.2783C28.3534 16.9464 28.3534 16.4077 28.0204 16.0754C27.6874 15.7431 27.1477 15.7431 26.8148 16.0754Z" fill="#2B2831"/>
<path d="M37.5858 38.6737C37.9187 39.005 38.4585 39.005 38.7914 38.6717C39.1237 38.3391 39.1227 37.8004 38.7894 37.4688L31.1065 29.8255C30.7732 29.4939 30.2332 29.4949 29.9012 29.8275C29.5686 30.1605 29.5696 30.6988 29.9029 31.0304L37.5858 38.6737Z" fill="#2B2831"/>
</g>
<defs>
<clipPath id="clip0">
<rect width="43.5556" height="43.5556" fill="white" transform="translate(0.222168 0.222168)"/>
</clipPath>
</defs>
</svg>
