<svg width="44" height="44" viewBox="0 0 44 44" fill="none" xmlns="http://www.w3.org/2000/svg">
<g clip-path="url(#clip0)">
<path d="M31.4371 18.3704C24.6216 18.3704 19.0963 23.8956 19.0963 30.7111C19.0963 37.5266 24.6216 43.0518 31.4371 43.0518C38.2525 43.0518 43.7778 37.5266 43.7778 30.7111C43.7704 23.8988 38.2493 18.3778 31.4371 18.3704ZM31.4371 41.6C25.4234 41.6 20.5482 36.7248 20.5482 30.7111C20.5482 24.6974 25.4234 19.8222 31.4371 19.8222C37.4508 19.8222 42.3259 24.6974 42.3259 30.7111C42.3192 36.722 37.4479 41.5933 31.4371 41.6Z" fill="#2B2831"/>
<path d="M32.1629 28.6669V24.1777H30.711V28.6669C30.096 28.8863 29.6122 29.3702 29.3928 29.9851H26.3555V31.437H29.3928C29.7285 32.3926 30.6802 32.9895 31.6868 32.8757C32.6935 32.7616 33.4875 31.9676 33.6016 30.961C33.7154 29.9543 33.1185 29.0026 32.1629 28.6669ZM31.4369 31.437C31.0361 31.437 30.711 31.112 30.711 30.7111C30.711 30.3102 31.0361 29.9851 31.4369 29.9851C31.8378 29.9851 32.1629 30.3102 32.1629 30.7111C32.1629 31.112 31.8378 31.437 31.4369 31.437Z" fill="#2B2831"/>
<path d="M22 29.9851H23.4519V31.437H22V29.9851Z" fill="#2B2831"/>
<path d="M30.7111 38.6963H32.1629V40.1481H30.7111V38.6963Z" fill="#2B2831"/>
<path d="M39.4222 29.9851H40.8741V31.437H39.4222V29.9851Z" fill="#2B2831"/>
<path d="M30.7111 21.2739H32.1629V22.7258H30.7111V21.2739Z" fill="#2B2831"/>
<path d="M1.67402 32.1628V11.111H35.0666V17.6443H36.5185V7.48133C36.516 5.47759 34.8926 3.85418 32.8888 3.8517H27.8074V3.12578C27.8074 1.92311 26.8322 0.947998 25.6296 0.947998C24.4269 0.947998 23.4518 1.92311 23.4518 3.12578V3.8517H13.2888V3.12578C13.2888 1.92311 12.3137 0.947998 11.1111 0.947998C9.90839 0.947998 8.93328 1.92311 8.93328 3.12578V3.8517H3.8518C1.84806 3.85418 0.224649 5.47759 0.222168 7.48133V32.1628C0.224649 34.1666 1.84806 35.79 3.8518 35.7924H18.3703V34.3406H3.8518C2.64913 34.3406 1.67402 33.3655 1.67402 32.1628ZM24.9036 3.12578C24.9036 2.72489 25.2287 2.39985 25.6296 2.39985C26.0305 2.39985 26.3555 2.72489 26.3555 3.12578V6.02948C26.3555 6.43037 26.0305 6.75541 25.6296 6.75541C25.2287 6.75541 24.9036 6.43037 24.9036 6.02948V3.12578ZM10.3851 3.12578C10.3851 2.72489 10.7102 2.39985 11.1111 2.39985C11.5119 2.39985 11.837 2.72489 11.837 3.12578V6.02948C11.837 6.43037 11.5119 6.75541 11.1111 6.75541C10.7102 6.75541 10.3851 6.43037 10.3851 6.02948V3.12578ZM3.8518 5.30355H8.93328V6.02948C8.93328 7.23215 9.90839 8.20726 11.1111 8.20726C12.3137 8.20726 13.2888 7.23215 13.2888 6.02948V5.30355H23.4518V6.02948C23.4518 7.23215 24.4269 8.20726 25.6296 8.20726C26.8322 8.20726 27.8074 7.23215 27.8074 6.02948V5.30355H32.8888C34.0915 5.30355 35.0666 6.27866 35.0666 7.48133V9.65911H1.67402V7.48133C1.67402 6.27866 2.64913 5.30355 3.8518 5.30355Z" fill="#2B2831"/>
<path d="M10.3852 16.9184C10.3852 16.1166 9.73509 15.4666 8.93331 15.4666H6.02961C5.22783 15.4666 4.57776 16.1166 4.57776 16.9184V19.8221C4.57776 20.6239 5.22783 21.274 6.02961 21.274H8.93331C9.73509 21.274 10.3852 20.6239 10.3852 19.8221V16.9184ZM6.02961 19.8221V16.9184H8.93331V19.8221H6.02961Z" fill="#2B2831"/>
<path d="M17.6444 16.9184C17.6444 16.1166 16.9944 15.4666 16.1926 15.4666H13.2889C12.4871 15.4666 11.837 16.1166 11.837 16.9184V19.8221C11.837 20.6239 12.4871 21.274 13.2889 21.274H16.1926C16.9944 21.274 17.6444 20.6239 17.6444 19.8221V16.9184ZM13.2889 19.8221V16.9184H16.1926V19.8221H13.2889Z" fill="#2B2831"/>
<path d="M24.9037 19.0962V16.9184C24.9037 16.1166 24.2537 15.4666 23.4519 15.4666H20.5482C19.7464 15.4666 19.0963 16.1166 19.0963 16.9184V19.8221C19.0963 20.6239 19.7464 21.274 20.5482 21.274H22V19.8221H20.5482V16.9184H23.4519V19.0962H24.9037Z" fill="#2B2831"/>
<path d="M8.93331 24.1777H6.02961C5.22783 24.1777 4.57776 24.8278 4.57776 25.6296V28.5333C4.57776 29.3351 5.22783 29.9851 6.02961 29.9851H8.93331C9.73509 29.9851 10.3852 29.3351 10.3852 28.5333V25.6296C10.3852 24.8278 9.73509 24.1777 8.93331 24.1777ZM6.02961 28.5333V25.6296H8.93331V28.5333H6.02961Z" fill="#2B2831"/>
<path d="M16.1926 24.1777H13.2889C12.4871 24.1777 11.837 24.8278 11.837 25.6296V28.5333C11.837 29.3351 12.4871 29.9851 13.2889 29.9851H16.1926C16.9944 29.9851 17.6444 29.3351 17.6444 28.5333V25.6296C17.6444 24.8278 16.9944 24.1777 16.1926 24.1777ZM13.2889 28.5333V25.6296H16.1926V28.5333H13.2889Z" fill="#2B2831"/>
<path d="M32.1629 17.6443V16.9184C32.1629 16.1166 31.5128 15.4666 30.711 15.4666H27.8073C27.0055 15.4666 26.3555 16.1166 26.3555 16.9184V17.6443H27.8073V16.9184H30.711V17.6443H32.1629Z" fill="#2B2831"/>
</g>
<defs>
<clipPath id="clip0">
<rect width="43.5556" height="43.5556" fill="white" transform="translate(0.222168 0.222168)"/>
</clipPath>
</defs>
</svg>
