<svg width="64" height="62" viewBox="0 0 64 62" fill="none" xmlns="http://www.w3.org/2000/svg">
<path d="M33.9359 11.6489L55.732 49.4007H12.1399L33.9359 11.6489Z" fill="#C4C4C4"/>
<path d="M29.5163 2.42985C30.6233 0.52338 33.3767 0.523382 34.4837 2.42986L62.6059 50.8626C63.7176 52.7772 62.3362 55.1767 60.1222 55.1767H3.87778C1.66378 55.1767 0.2824 52.7772 1.39413 50.8626L29.5163 2.42985Z" stroke="#2B2831" stroke-width="2"/>
<path d="M29.4049 10.3724C30.5609 8.37923 33.439 8.37923 34.5951 10.3724L55.7228 46.7995C56.8828 48.7995 55.4398 51.3047 53.1277 51.3047H10.8722C8.56017 51.3047 7.11712 48.7995 8.27712 46.7995L29.4049 10.3724Z" fill="#FFB71B" stroke="#2B2831" stroke-width="2"/>
<path fill-rule="evenodd" clip-rule="evenodd" d="M27.759 25.3138C26.3013 25.3138 25.1155 26.4996 25.1155 27.9573C25.1155 29.4149 26.3013 30.6008 27.759 30.6008C29.2166 30.6008 30.4025 29.4149 30.4025 27.9573C30.4025 26.4997 29.2166 25.3138 27.759 25.3138ZM21.9671 34.9325C21.3394 34.556 20.5242 34.7614 20.1505 35.391L14.7627 44.4654C14.2406 45.3451 14.8757 46.462 15.8993 46.462H26.4372C27.1672 46.462 27.759 45.8702 27.759 45.1403C27.759 40.955 25.5572 37.0866 21.9671 34.9325ZM18.2212 43.8185L21.6963 37.9655C23.4903 39.4322 24.6831 41.5333 25.0187 43.8185H18.2212ZM38.3289 39.3059L43.2288 44.2057C43.745 44.7219 43.745 45.5588 43.2287 46.0751C42.7125 46.5913 41.8756 46.5912 41.3595 46.0751L36.0725 40.7881C35.8246 40.5401 35.6853 40.2039 35.6853 39.8534V37.7574L33.0418 40.4009V45.1404C33.0418 45.8704 32.4501 46.4622 31.7201 46.4622C30.9901 46.4622 30.3983 45.8704 30.3983 45.1404V39.8534C30.3983 39.5028 30.5376 39.1667 30.7855 38.9188L35.1379 34.5663L32.2978 31.7262L30.3306 37.6278C30.0997 38.3203 29.3513 38.6947 28.6586 38.4638C27.9661 38.2329 27.5917 37.4843 27.8226 36.7918L30.4575 28.8871C30.6229 28.3547 31.1153 27.9574 31.7201 27.9575H39.6507C40.3807 27.9575 40.9724 28.5492 40.9724 29.2792V31.9227C40.9724 32.6527 40.3807 33.2445 39.6507 33.2445C38.9207 33.2445 38.3289 32.6527 38.3289 31.9227V30.601H34.9111L37.9416 33.6314C38.1966 33.8864 38.3291 34.2346 38.3289 34.5668V39.3059Z" fill="#2B2831"/>
</svg>
