<svg width="44" height="44" viewBox="0 0 44 44" fill="none" xmlns="http://www.w3.org/2000/svg">
<g clip-path="url(#clip0)">
<path d="M33.5972 19.4539C33.5972 18.075 32.4755 16.9533 31.0966 16.9533H26.501C27.6175 15.6983 28.3473 14.2692 28.4882 12.9871C28.5743 12.2041 28.3324 11.4268 27.8242 10.8545C27.3599 10.3314 26.7248 10.0399 26.0361 10.0335C26.0281 10.0334 26.0201 10.0334 26.0122 10.0334C25.346 10.0334 24.7207 10.29 24.2489 10.7576C23.7769 11.2252 23.5157 11.8481 23.5127 12.513C23.4884 12.6585 23.2324 13.1603 22.6058 13.7562C22.0929 14.2441 21.2068 14.9149 19.8985 15.3397C19.3855 15.5062 18.9167 15.8129 18.5051 16.2512C18.2892 16.481 17.9657 16.7985 17.5653 17.1172C17.3688 17.0131 17.1453 16.9535 16.9079 16.9535H12.5432C11.766 16.9535 11.1338 17.5857 11.1338 18.3629V30.002C11.1338 30.7792 11.766 31.4114 12.5432 31.4114H16.9079C17.4377 31.4114 17.8997 31.1172 18.1404 30.684H29.278C30.4563 30.684 31.4149 29.7254 31.4149 28.5471C31.4149 28.151 31.3066 27.7797 31.1179 27.4612C31.7318 27.0854 32.1423 26.4084 32.1423 25.6373C32.1423 25.2411 32.034 24.8699 31.8453 24.5514C32.4593 24.1756 32.8697 23.4986 32.8697 22.7275C32.8697 22.2816 32.7324 21.8671 32.4979 21.5241C33.1608 21.0738 33.5972 20.3138 33.5972 19.4539ZM31.0966 20.5905H30.7329C30.3563 20.5905 30.0509 20.8958 30.0509 21.2725C30.0509 21.6491 30.3562 21.9545 30.7329 21.9545C31.1591 21.9545 31.5058 22.3012 31.5058 22.7274C31.5058 23.1536 31.1591 23.5004 30.7329 23.5004H30.0054C29.6288 23.5004 29.3234 23.8057 29.3234 24.1824C29.3234 24.559 29.6287 24.8644 30.0054 24.8644C30.4316 24.8644 30.7784 25.2111 30.7784 25.6373C30.7784 26.0635 30.4316 26.4103 30.0054 26.4103H29.278C28.9014 26.4103 28.596 26.7156 28.596 27.0923C28.596 27.4689 28.9013 27.7743 29.278 27.7743C29.7042 27.7743 30.0509 28.121 30.0509 28.5472C30.0509 28.9734 29.7042 29.3201 29.278 29.3201H18.3173V22.7277C18.3173 22.3511 18.012 22.0457 17.6353 22.0457C17.2586 22.0457 16.9533 22.351 16.9533 22.7277V30.0021C16.9533 30.0272 16.933 30.0475 16.9079 30.0475H12.5432C12.5181 30.0475 12.4978 30.0272 12.4978 30.0021V18.3627C12.4978 18.3376 12.5181 18.3173 12.5432 18.3173H16.9079C16.933 18.3173 16.9533 18.3376 16.9533 18.3627V19.8176C16.9533 20.1942 17.2586 20.4996 17.6353 20.4996C18.012 20.4996 18.3173 20.1943 18.3173 19.8176V18.3627C18.3173 18.3296 18.3146 18.2972 18.3123 18.2647C18.8236 17.8689 19.2326 17.4687 19.4993 17.1847C19.7517 16.9158 20.0277 16.7316 20.3196 16.6369C21.9248 16.1157 23.0051 15.2766 23.6286 14.6645C24.4101 13.8972 24.8765 13.0974 24.8765 12.5248C24.8765 12.2223 24.9945 11.9387 25.2088 11.7264C25.4257 11.5114 25.713 11.3979 26.0234 11.3975C26.4057 11.401 26.6589 11.5966 26.8041 11.7601C27.053 12.0404 27.1755 12.4435 27.1322 12.8381C26.9832 14.1932 25.8996 15.8682 24.3714 17.1053C24.1469 17.2871 24.0612 17.5906 24.1576 17.8629C24.254 18.1352 24.5116 18.3173 24.8005 18.3173H31.0964C31.7232 18.3173 32.2331 18.8271 32.2331 19.4539C32.2331 20.0807 31.7233 20.5905 31.0966 20.5905Z" fill="#2B2831"/>
<path d="M14.7256 27.1301C14.349 27.1301 14.04 27.4391 14.04 27.8157C14.04 28.1923 14.349 28.5013 14.7256 28.5013C15.1022 28.5013 15.4112 28.1923 15.4112 27.8157C15.4113 27.4392 15.1023 27.1301 14.7256 27.1301Z" fill="#2B2831"/>
<path d="M42.5617 22.0004L43.7333 18.9002C43.8186 18.6747 43.7784 18.4209 43.6276 18.2327L41.5554 15.6462L41.7116 12.3357C41.723 12.095 41.6062 11.8659 41.4048 11.7336L38.6348 9.91408L37.7604 6.71734C37.6968 6.48476 37.5151 6.30305 37.2826 6.2395L34.0858 5.36516L32.2663 2.59521C32.1339 2.39368 31.9049 2.27748 31.6642 2.28845L28.3537 2.44464L25.7672 0.372432C25.5791 0.221689 25.3253 0.181451 25.0997 0.26669L21.9995 1.43827L18.8995 0.266775C18.6738 0.181451 18.4201 0.221689 18.232 0.372517L15.6455 2.44472L12.335 2.28854C12.0931 2.27714 11.8652 2.39385 11.7329 2.5953L9.91345 5.36533L6.71671 6.23967C6.48413 6.3033 6.30242 6.48501 6.23887 6.71751L5.36453 9.91425L2.5945 11.7337C2.39297 11.8661 2.27634 12.0951 2.28774 12.3358L2.44393 15.6463L0.37172 18.2328C0.220977 18.4209 0.180739 18.6747 0.265979 18.9003L1.43747 22.0004L0.265894 25.1005C0.180569 25.326 0.220807 25.5798 0.371635 25.768L2.44384 28.3545L2.28765 31.665C2.27625 31.9057 2.39297 32.1348 2.59441 32.2671L5.36445 34.0866L6.23879 37.2834C6.30242 37.516 6.48413 37.6977 6.71662 37.7612L9.91336 38.6356L11.7328 41.4056C11.8652 41.6071 12.0946 41.723 12.335 41.7124L15.6454 41.5562L18.2319 43.6284C18.4201 43.7792 18.6739 43.8194 18.8994 43.7341L21.9996 42.5625L25.0998 43.7341C25.1781 43.7636 25.2596 43.7781 25.3408 43.7781C25.4936 43.7781 25.6444 43.7268 25.7672 43.6284L28.3537 41.5562L31.6642 41.7124C31.9057 41.7231 32.1339 41.607 32.2663 41.4056L34.0858 38.6356L37.2826 37.7612C37.5152 37.6976 37.6969 37.5159 37.7604 37.2834L38.6348 34.0866L41.4048 32.2671C41.6063 32.1347 41.723 31.9057 41.7116 31.665L41.5554 28.3545L43.6276 25.768C43.7783 25.5799 43.8186 25.3261 43.7333 25.1005L42.5617 22.0004ZM41.1948 22.2415L42.3199 25.2188L40.3298 27.7028C40.2259 27.8323 40.1729 27.9954 40.1807 28.1613L40.3308 31.3406L37.6706 33.088C37.5318 33.1791 37.4309 33.3179 37.3871 33.4781L36.5474 36.5482L33.4773 37.3879C33.3172 37.4317 33.1785 37.5326 33.0872 37.6714L31.3398 40.3316L28.1605 40.1815C27.9945 40.1739 27.8315 40.2267 27.702 40.3306L25.218 42.3207L22.2407 41.1956C22.163 41.1662 22.0813 41.1516 21.9996 41.1516C21.9179 41.1516 21.8362 41.1663 21.7585 41.1956L18.7812 42.3207L16.2972 40.3306C16.1677 40.2267 16.0043 40.1739 15.8387 40.1815L12.6594 40.3316L10.912 37.6714C10.8209 37.5326 10.6821 37.4317 10.5219 37.3879L7.4518 36.5482L6.61207 33.4781C6.56826 33.318 6.46746 33.1793 6.32862 33.088L3.66842 31.3406L3.81848 28.1613C3.82631 27.9953 3.77331 27.8323 3.66944 27.7028L1.67932 25.2188L2.80454 22.2415C2.86323 22.0862 2.86323 21.9146 2.80454 21.7593L1.67932 18.782L3.66944 16.298C3.77331 16.1685 3.82631 16.0054 3.81848 15.8395L3.66842 12.6602L6.32862 10.9128C6.46737 10.8217 6.56826 10.6829 6.61207 10.5227L7.4518 7.45259L10.5219 6.61287C10.6821 6.56906 10.8207 6.46825 10.912 6.32942L12.6594 3.66921L15.8387 3.81928C16.0044 3.82702 16.1677 3.7741 16.2972 3.67023L18.7812 1.68012L21.7585 2.80533C21.9139 2.86403 22.0854 2.86403 22.2407 2.80533L25.218 1.68012L27.702 3.67023C27.8315 3.77419 27.9947 3.8271 28.1605 3.81928L31.3398 3.66921L33.0872 6.32942C33.1783 6.46817 33.3171 6.56906 33.4773 6.61287L36.5474 7.45259L37.3871 10.5227C37.4309 10.6828 37.5318 10.8215 37.6706 10.9128L40.3308 12.6602L40.1807 15.8395C40.1729 16.0055 40.2259 16.1685 40.3298 16.298L42.3199 18.782L41.1947 21.7593C41.1361 21.9147 41.1361 22.0862 41.1948 22.2415Z" fill="#2B2831"/>
<path d="M34.8143 10.224C34.6446 10.0393 34.4686 9.85552 34.2909 9.6779C34.1132 9.50027 33.9295 9.32418 33.7448 9.15446C33.4673 8.89977 33.036 8.91814 32.7812 9.19564C32.5265 9.47305 32.5448 9.90452 32.8223 10.1592C32.9927 10.3157 33.1624 10.4782 33.3264 10.6422C33.4903 10.8062 33.6529 10.9759 33.8095 11.1464C33.944 11.2929 34.1277 11.3671 34.3121 11.3671C34.4769 11.3671 34.6421 11.3077 34.7731 11.1875C35.0506 10.9329 35.069 10.5015 34.8143 10.224Z" fill="#2B2831"/>
<path d="M31.3229 7.29368C28.0341 5.19842 24.0744 4.26725 20.1737 4.67107C16.2159 5.08111 12.4839 6.85923 9.66502 9.67801C6.5628 12.7802 4.7566 16.9013 4.57915 21.2822C4.4028 25.6372 5.84524 29.8655 8.64087 33.188C8.77571 33.3482 8.96865 33.4308 9.16312 33.4308C9.31811 33.4308 9.47396 33.3783 9.60182 33.2707C9.88995 33.0282 9.92704 32.598 9.68459 32.3099C7.1086 29.2483 5.77948 25.3516 5.94196 21.3375C6.10546 17.2999 7.7701 13.5017 10.6294 10.6425C13.2274 8.04442 16.6669 6.40555 20.3142 6.02776C23.9105 5.65516 27.5596 6.51342 30.5899 8.44399C30.9076 8.64637 31.3291 8.55296 31.5314 8.23531C31.7339 7.91758 31.6404 7.49606 31.3229 7.29368Z" fill="#2B2831"/>
<path d="M36.6754 12.646C36.473 12.3283 36.0512 12.2348 35.7337 12.4372C35.416 12.6396 35.3227 13.0612 35.5251 13.3788C37.4556 16.4091 38.3137 20.0584 37.9413 23.6545C37.5635 27.3018 35.9246 30.7412 33.3266 33.3394C30.4673 36.1986 26.6692 37.8633 22.6317 38.0268C18.6182 38.19 14.7207 36.8602 11.6592 34.2843C11.3711 34.0418 10.9409 34.0789 10.6984 34.3671C10.4559 34.6552 10.4929 35.0854 10.7812 35.328C13.922 37.9706 17.8718 39.4042 21.9734 39.4042C22.2107 39.4042 22.4489 39.3993 22.6871 39.3897C27.0679 39.2123 31.1889 37.4061 34.2912 34.3039C37.1101 31.485 38.8883 27.753 39.2981 23.7951C39.7021 19.8942 38.7706 15.9347 36.6754 12.646Z" fill="#2B2831"/>
</g>
<defs>
<clipPath id="clip0">
<rect width="43.5556" height="43.5556" fill="white" transform="translate(0.222168 0.222168)"/>
</clipPath>
</defs>
</svg>
