<svg width="46" height="37" viewBox="0 0 46 37" fill="none" xmlns="http://www.w3.org/2000/svg">
<path fill-rule="evenodd" clip-rule="evenodd" d="M9.12782 28.4079C8.09751 28.4079 7.16115 27.9864 6.48255 27.3081C5.80395 26.6295 5.38274 25.6932 5.38274 24.6625V14.8039C5.38274 13.001 6.11365 11.3685 7.29519 10.1874C8.47672 9.00583 10.1092 8.27492 11.9117 8.27492C13.7146 8.27492 15.3471 9.00583 16.5282 10.1874C17.7098 11.3689 18.4407 13.001 18.4407 14.8039C18.4407 16.6067 17.7098 18.2389 16.5282 19.4208C15.3467 20.6023 13.7146 21.3333 11.9117 21.3333C11.6337 21.3333 11.3523 21.3142 11.0689 21.2775C10.7829 21.2405 10.506 21.1859 10.2399 21.1156L9.93702 21.0354V20.7238V17.0852V16.3226L10.5698 16.7492C10.7619 16.8786 10.9715 16.9802 11.1923 17.0474C11.4053 17.1124 11.6356 17.1475 11.8777 17.1475C12.5254 17.1475 13.112 16.8855 13.5358 16.462C13.9593 16.0381 14.2213 15.4519 14.2213 14.8039C14.2213 14.1562 13.9593 13.5697 13.5358 13.1462C13.112 12.7227 12.5254 12.4607 11.8777 12.4607C11.2301 12.4607 10.6439 12.7227 10.2196 13.1462C9.79611 13.57 9.53414 14.1566 9.53414 14.8039V28.002V28.4079H9.12782ZM7.05651 26.7342C7.49758 27.1752 8.07727 27.4777 8.72227 27.5678V14.8039C8.72227 13.934 9.0755 13.1454 9.64641 12.5741L9.64794 12.5726C10.2188 12.0017 11.0074 11.6484 11.8777 11.6484C12.7476 11.6484 13.5362 12.0017 14.1075 12.5726L14.109 12.5741C14.68 13.145 15.0332 13.9336 15.0332 14.8039C15.0332 15.6742 14.68 16.4624 14.109 17.0333L14.1075 17.0348C13.5366 17.6057 12.748 17.959 11.8777 17.959C11.5612 17.959 11.2518 17.9105 10.9574 17.8207C10.8868 17.7994 10.8169 17.7753 10.7485 17.7489V20.403C10.8887 20.432 11.0292 20.4561 11.1701 20.4744C11.405 20.505 11.6524 20.5206 11.9113 20.5206C13.49 20.5206 14.9198 19.8806 15.9539 18.8461C16.9884 17.8116 17.6284 16.3822 17.6284 14.8031C17.6284 13.2241 16.9884 11.7947 15.9539 10.7606C14.9194 9.72606 13.49 9.08603 11.9113 9.08603C10.3326 9.08603 8.90328 9.72606 7.86877 10.7606C6.83426 11.7951 6.19423 13.2244 6.19423 14.8031V24.6621C6.19461 25.469 6.52455 26.2022 7.05651 26.7342ZM33.5325 13.6743H44.3718H44.7777V14.0802V17.516V17.9219H44.3718H41.9954V22.1131V22.519H41.5894H36.3149H35.909V22.1131V17.9219H33.5325H33.1266V17.516V14.0802V13.6743H33.5325ZM43.9658 14.4862H33.9385V17.1101H36.3149H36.7208V17.516V21.7071H41.1835V17.516V17.1101H41.5894H43.9658V14.4862ZM38.3457 5.89963C36.6193 4.96785 34.3169 3.88713 31.638 3.02676C28.8572 2.13354 25.6689 1.479 22.2981 1.479C16.6344 1.479 11.211 2.95611 7.40402 6.11692C4.12063 8.84315 2.03404 12.8372 2.03404 18.2358C2.03404 23.6719 4.01179 27.6511 7.19399 30.3433C10.8375 33.4258 16.07 34.8434 21.7382 34.8434C25.5253 34.8434 28.9771 34.104 31.8557 33.1493C34.6117 32.2351 36.8446 31.1239 38.3457 30.273V24.3986C37.0748 25.1131 35.3732 25.9425 33.4527 26.5482C31.8401 27.0565 30.0716 27.4093 28.2676 27.4093C23.7671 27.4093 20.9347 25.0634 19.6913 22.0508C19.2064 20.8762 18.9658 19.5988 18.9646 18.321C18.9635 17.044 19.2018 15.7651 19.6738 14.5866C20.8931 11.5423 23.6617 9.15553 27.893 9.13835C30.0418 9.12956 32.1589 9.55192 34.0622 10.1419C35.6802 10.6437 37.1466 11.2681 38.3457 11.8512V5.89963ZM31.8855 2.25575C29.0306 1.33885 25.7575 0.666748 22.2981 0.666748C16.4591 0.666748 10.8501 2.20419 6.88696 5.49484C3.42332 8.37077 1.22217 12.5711 1.22217 18.2355C1.22217 23.9342 3.31028 28.1185 6.67081 30.9612C10.4709 34.1762 15.8894 35.6545 21.7382 35.6545C25.6158 35.6545 29.1558 34.8957 32.1093 33.9162C35.0574 32.9382 37.4204 31.7395 38.9529 30.8562L39.1576 30.7382V30.5056V23.6975V22.986L38.5455 23.3503C37.2795 24.1034 35.3938 25.0867 33.2118 25.7745C31.6709 26.2603 29.9834 26.5975 28.2676 26.5975C24.149 26.5975 21.566 24.4723 20.4394 21.743C19.9946 20.6654 19.7738 19.4934 19.7731 18.3206C19.7723 17.1471 19.9911 15.9717 20.4253 14.8875C21.5312 12.1265 24.0471 9.96206 27.896 9.9464C29.9505 9.938 31.9875 10.3455 33.8239 10.9152C35.6695 11.4877 37.3105 12.2224 38.5676 12.8647L39.1576 13.166V12.505V5.65981V5.42076L38.9449 5.30466C37.1615 4.3282 34.7316 3.16996 31.8855 2.25575Z" fill="#2B2831" stroke="#2B2831"/>
</svg>
