<svg width="119" height="12" viewBox="0 0 119 12" fill="none" xmlns="http://www.w3.org/2000/svg">
<path d="M9.70792 7.91591V11.2399H7.90793V9.49991H1.97993V11.2399H0.179932L0.191932 7.91591H0.527931C1.03193 7.89991 1.38793 7.53191 1.59593 6.81191C1.80393 6.09191 1.93193 5.06391 1.97993 3.72791L2.07593 1.09991H8.53192V7.91591H9.70792ZM3.69593 3.90791C3.65593 4.90791 3.57193 5.74791 3.44393 6.42791C3.31593 7.09991 3.11993 7.59591 2.85593 7.91591H6.61193V2.68391H3.73193L3.69593 3.90791Z" fill="white"/>
<path d="M13.8145 9.59591C13.1345 9.59591 12.5225 9.45591 11.9785 9.17591C11.4425 8.88791 11.0225 8.49191 10.7185 7.98791C10.4145 7.48391 10.2625 6.91191 10.2625 6.27191C10.2625 5.63191 10.4145 5.05991 10.7185 4.55591C11.0225 4.05191 11.4425 3.65991 11.9785 3.37991C12.5225 3.09191 13.1345 2.94791 13.8145 2.94791C14.4945 2.94791 15.1025 3.09191 15.6385 3.37991C16.1745 3.65991 16.5945 4.05191 16.8985 4.55591C17.2025 5.05991 17.3545 5.63191 17.3545 6.27191C17.3545 6.91191 17.2025 7.48391 16.8985 7.98791C16.5945 8.49191 16.1745 8.88791 15.6385 9.17591C15.1025 9.45591 14.4945 9.59591 13.8145 9.59591ZM13.8145 8.05991C14.2945 8.05991 14.6865 7.89991 14.9905 7.57991C15.3025 7.25191 15.4585 6.81591 15.4585 6.27191C15.4585 5.72791 15.3025 5.29591 14.9905 4.97591C14.6865 4.64791 14.2945 4.48391 13.8145 4.48391C13.3345 4.48391 12.9385 4.64791 12.6265 4.97591C12.3145 5.29591 12.1585 5.72791 12.1585 6.27191C12.1585 6.81591 12.3145 7.25191 12.6265 7.57991C12.9385 7.89991 13.3345 8.05991 13.8145 8.05991Z" fill="white"/>
<path d="M22.4461 2.94791C23.0461 2.94791 23.5901 3.08791 24.0781 3.36791C24.5741 3.63991 24.9621 4.02791 25.2421 4.53191C25.5221 5.02791 25.6621 5.60791 25.6621 6.27191C25.6621 6.93591 25.5221 7.51991 25.2421 8.02391C24.9621 8.51991 24.5741 8.90791 24.0781 9.18791C23.5901 9.45991 23.0461 9.59591 22.4461 9.59591C21.6221 9.59591 20.9741 9.33591 20.5021 8.81591V11.8279H18.6301V3.04391H20.4181V3.78791C20.8821 3.22791 21.5581 2.94791 22.4461 2.94791ZM22.1221 8.05991C22.6021 8.05991 22.9941 7.89991 23.2981 7.57991C23.6101 7.25191 23.7661 6.81591 23.7661 6.27191C23.7661 5.72791 23.6101 5.29591 23.2981 4.97591C22.9941 4.64791 22.6021 4.48391 22.1221 4.48391C21.6421 4.48391 21.2461 4.64791 20.9341 4.97591C20.6301 5.29591 20.4781 5.72791 20.4781 6.27191C20.4781 6.81591 20.6301 7.25191 20.9341 7.57991C21.2461 7.89991 21.6421 8.05991 22.1221 8.05991Z" fill="white"/>
<path d="M31.0901 9.64391C30.2341 9.64391 29.4581 9.45991 28.7621 9.09191C28.0741 8.71591 27.5301 8.19991 27.1301 7.54391C26.7381 6.87991 26.5421 6.13191 26.5421 5.29991C26.5421 4.46791 26.7381 3.72391 27.1301 3.06791C27.5301 2.40391 28.0741 1.88791 28.7621 1.51991C29.4581 1.14391 30.2381 0.955915 31.1021 0.955915C31.8301 0.955915 32.4861 1.08391 33.0701 1.33991C33.6621 1.59591 34.1581 1.96391 34.5581 2.44391L33.3101 3.59591C32.7421 2.93991 32.0381 2.61191 31.1981 2.61191C30.6781 2.61191 30.2141 2.72791 29.8061 2.95991C29.3981 3.18391 29.0781 3.49991 28.8461 3.90791C28.6221 4.31591 28.5101 4.77991 28.5101 5.29991C28.5101 5.81991 28.6221 6.28391 28.8461 6.69191C29.0781 7.09991 29.3981 7.41991 29.8061 7.65191C30.2141 7.87591 30.6781 7.98791 31.1981 7.98791C32.0381 7.98791 32.7421 7.65591 33.3101 6.99191L34.5581 8.14391C34.1581 8.63191 33.6621 9.00391 33.0701 9.25991C32.4781 9.51591 31.8181 9.64391 31.0901 9.64391Z" fill="white"/>
<path d="M40.9294 4.57991H38.7454V9.49991H36.8854V4.57991H34.7014V3.04391H40.9294V4.57991Z" fill="white"/>
<path d="M45.7312 2.94791C46.3312 2.94791 46.8752 3.08791 47.3632 3.36791C47.8592 3.63991 48.2472 4.02791 48.5272 4.53191C48.8072 5.02791 48.9472 5.60791 48.9472 6.27191C48.9472 6.93591 48.8072 7.51991 48.5272 8.02391C48.2472 8.51991 47.8592 8.90791 47.3632 9.18791C46.8752 9.45991 46.3312 9.59591 45.7312 9.59591C44.9072 9.59591 44.2592 9.33591 43.7872 8.81591V11.8279H41.9152V3.04391H43.7032V3.78791C44.1672 3.22791 44.8432 2.94791 45.7312 2.94791ZM45.4072 8.05991C45.8872 8.05991 46.2792 7.89991 46.5832 7.57991C46.8952 7.25191 47.0512 6.81591 47.0512 6.27191C47.0512 5.72791 46.8952 5.29591 46.5832 4.97591C46.2792 4.64791 45.8872 4.48391 45.4072 4.48391C44.9272 4.48391 44.5312 4.64791 44.2192 4.97591C43.9152 5.29591 43.7632 5.72791 43.7632 6.27191C43.7632 6.81591 43.9152 7.25191 44.2192 7.57991C44.5312 7.89991 44.9272 8.05991 45.4072 8.05991Z" fill="white"/>
<path d="M53.2833 9.59591C52.6033 9.59591 51.9913 9.45591 51.4473 9.17591C50.9113 8.88791 50.4913 8.49191 50.1873 7.98791C49.8833 7.48391 49.7313 6.91191 49.7313 6.27191C49.7313 5.63191 49.8833 5.05991 50.1873 4.55591C50.4913 4.05191 50.9113 3.65991 51.4473 3.37991C51.9913 3.09191 52.6033 2.94791 53.2833 2.94791C53.9633 2.94791 54.5713 3.09191 55.1073 3.37991C55.6433 3.65991 56.0633 4.05191 56.3673 4.55591C56.6713 5.05991 56.8233 5.63191 56.8233 6.27191C56.8233 6.91191 56.6713 7.48391 56.3673 7.98791C56.0633 8.49191 55.6433 8.88791 55.1073 9.17591C54.5713 9.45591 53.9633 9.59591 53.2833 9.59591ZM53.2833 8.05991C53.7633 8.05991 54.1553 7.89991 54.4593 7.57991C54.7713 7.25191 54.9273 6.81591 54.9273 6.27191C54.9273 5.72791 54.7713 5.29591 54.4593 4.97591C54.1553 4.64791 53.7633 4.48391 53.2833 4.48391C52.8033 4.48391 52.4073 4.64791 52.0953 4.97591C51.7833 5.29591 51.6273 5.72791 51.6273 6.27191C51.6273 6.81591 51.7833 7.25191 52.0953 7.57991C52.4073 7.89991 52.8033 8.05991 53.2833 8.05991Z" fill="white"/>
<path d="M58.1108 3.04391H59.9708V6.88391L63.1148 3.04391H64.8308V9.49991H62.9708V5.65991L59.8388 9.49991H58.1108V3.04391ZM61.3508 2.34791C59.9428 2.34791 59.2348 1.72791 59.2268 0.487915H60.4508C60.4588 0.767915 60.5348 0.987915 60.6788 1.14791C60.8308 1.29991 61.0508 1.37591 61.3388 1.37591C61.6268 1.37591 61.8468 1.29991 61.9988 1.14791C62.1588 0.987915 62.2388 0.767915 62.2388 0.487915H63.4868C63.4788 1.72791 62.7668 2.34791 61.3508 2.34791Z" fill="white"/>
<path d="M74.4183 9.49991L74.4063 4.47191L71.9343 8.61191H71.0703L68.5983 4.56791V9.49991H66.7743V1.09991H68.3823L71.5263 6.31991L74.6223 1.09991H76.2303L76.2423 9.49991H74.4183Z" fill="white"/>
<path d="M81.209 9.59591C80.529 9.59591 79.917 9.45591 79.373 9.17591C78.837 8.88791 78.417 8.49191 78.113 7.98791C77.809 7.48391 77.657 6.91191 77.657 6.27191C77.657 5.63191 77.809 5.05991 78.113 4.55591C78.417 4.05191 78.837 3.65991 79.373 3.37991C79.917 3.09191 80.529 2.94791 81.209 2.94791C81.889 2.94791 82.497 3.09191 83.033 3.37991C83.569 3.65991 83.989 4.05191 84.293 4.55591C84.597 5.05991 84.749 5.63191 84.749 6.27191C84.749 6.91191 84.597 7.48391 84.293 7.98791C83.989 8.49191 83.569 8.88791 83.033 9.17591C82.497 9.45591 81.889 9.59591 81.209 9.59591ZM81.209 8.05991C81.689 8.05991 82.081 7.89991 82.385 7.57991C82.697 7.25191 82.853 6.81591 82.853 6.27191C82.853 5.72791 82.697 5.29591 82.385 4.97591C82.081 4.64791 81.689 4.48391 81.209 4.48391C80.729 4.48391 80.333 4.64791 80.021 4.97591C79.709 5.29591 79.553 5.72791 79.553 6.27191C79.553 6.81591 79.709 7.25191 80.021 7.57991C80.333 7.89991 80.729 8.05991 81.209 8.05991Z" fill="white"/>
<path d="M86.0366 3.04391H87.8966V5.56391H90.7046V3.04391H92.5766V9.49991H90.7046V7.08791H87.8966V9.49991H86.0366V3.04391Z" fill="white"/>
<path d="M99.7926 4.57991H97.6086V9.49991H95.7486V4.57991H93.5646V3.04391H99.7926V4.57991Z" fill="white"/>
<path d="M103.298 2.94791C104.298 2.94791 105.066 3.18791 105.602 3.66791C106.138 4.13991 106.406 4.85591 106.406 5.81591V9.49991H104.654V8.69591C104.302 9.29591 103.646 9.59591 102.686 9.59591C102.19 9.59591 101.758 9.51191 101.39 9.34391C101.03 9.17591 100.754 8.94391 100.562 8.64791C100.37 8.35191 100.274 8.01591 100.274 7.63991C100.274 7.03991 100.498 6.56791 100.946 6.22391C101.402 5.87991 102.102 5.70791 103.046 5.70791H104.534C104.534 5.29991 104.41 4.98791 104.162 4.77191C103.914 4.54791 103.542 4.43591 103.046 4.43591C102.702 4.43591 102.362 4.49191 102.026 4.60391C101.698 4.70791 101.418 4.85191 101.186 5.03591L100.514 3.72791C100.866 3.47991 101.286 3.28791 101.774 3.15191C102.27 3.01591 102.778 2.94791 103.298 2.94791ZM103.154 8.33591C103.474 8.33591 103.758 8.26391 104.006 8.11991C104.254 7.96791 104.43 7.74791 104.534 7.45991V6.79991H103.25C102.482 6.79991 102.098 7.05191 102.098 7.55591C102.098 7.79591 102.19 7.98791 102.374 8.13191C102.566 8.26791 102.826 8.33591 103.154 8.33591Z" fill="white"/>
<path d="M114.429 7.05191H113.529V9.49991H111.681V7.05191H110.781L109.413 9.49991H107.205L109.233 6.16391L107.349 3.04391H109.329L110.757 5.55191H111.681V3.04391H113.529V5.55191H114.441L115.881 3.04391H117.861L115.977 6.16391L118.017 9.49991H115.797L114.429 7.05191Z" fill="white"/>
</svg>
