<svg width="261" height="260" viewBox="0 0 261 260" fill="none" xmlns="http://www.w3.org/2000/svg">
<path fill-rule="evenodd" clip-rule="evenodd" d="M7.125 0C3.18997 0 0 3.18998 0 7.12501V166.21C0 170.145 3.18998 173.335 7.12501 173.335H43.3336V50.4604C43.3336 46.5254 46.5236 43.3354 50.4586 43.3354H173.335V7.125C173.335 3.18997 170.145 0 166.21 0H7.125ZM86.6673 252.875V216.67H209.543C213.478 216.67 216.668 213.48 216.668 209.545V86.6655H252.877C256.812 86.6655 260.002 89.8555 260.002 93.7905V252.875C260.002 256.81 256.812 260 252.877 260H93.7923C89.8572 260 86.6673 256.81 86.6673 252.875ZM173.335 166.21V86.6655H93.7923C89.8572 86.6655 86.6673 89.8555 86.6673 93.7905V173.335H166.21C170.145 173.335 173.335 170.145 173.335 166.21Z" fill="#FFB71B"/>
</svg>
